<?xml version="1.0" encoding="UTF-8"?>
<svg xmlns="http://www.w3.org/2000/svg" width="8.5in" height="11in" xmlns:xlink="http://www.w3.org/1999/xlink" viewBox="0 0 612 792">
  <defs>
    <clipPath id="clippath-1">
      <rect x="231.61" y="765.75" width="5.1" height="5.1" fill="none"/>
    </clipPath>
    <clipPath id="clippath-2">
      <rect x="286.87" y="765.69" width="2.74" height="5.12" fill="none"/>
    </clipPath>
    <clipPath id="clippath-3">
      <rect x="350.82" y="765.66" width="4.48" height="5.24" fill="none"/>
    </clipPath>
    <!-- Iconos reutilizados del arte vectorial del plano (#pdf-planta-vector-art) -->
    <g id="pdf-def-icon-bed">
      <path d="M117.93,351.61h-21.03v-5.54h21.03v5.54ZM97.28,351.23h20.28v-4.79h-20.28v4.79Z" fill="#b18c75"/>
      <path d="M117.93,346.44h-21.03v-2.48c0-.74.6-1.34,1.34-1.34h18.36c.74,0,1.34.6,1.34,1.34v2.48ZM97.28,346.07h20.28v-2.11c0-.53-.43-.96-.96-.96h-18.36c-.53,0-.96.43-.96.96v2.11Z" fill="#b18c75"/>
      <path d="M106.46,343h-5.54v-1.81c0-.79.64-1.44,1.44-1.44h2.67c.79,0,1.44.64,1.44,1.44v1.81ZM101.29,342.62h4.79v-1.43c0-.58-.48-1.06-1.06-1.06h-2.67c-.58,0-1.06.47-1.06,1.06v1.43Z" fill="#b18c75"/>
      <path d="M113.92,343h-5.54v-1.81c0-.79.64-1.44,1.44-1.44h2.67c.79,0,1.44.64,1.44,1.44v1.81ZM108.75,342.62h4.79v-1.43c0-.58-.48-1.06-1.06-1.06h-2.67c-.58,0-1.06.47-1.06,1.06v1.43Z" fill="#b18c75"/>
      <path d="M115.64,342.81h-.38v-5.16c0-.53-.43-.96-.96-.96h-13.77c-.53,0-.96.43-.96.96v5.16h-.38v-5.16c0-.74.6-1.34,1.34-1.34h13.77c.74,0,1.34.6,1.34,1.34v5.16Z" fill="#b18c75"/>
    </g>
    <g id="pdf-def-icon-bath">
      <path d="M199.14,344.15h-12.58v-.95c0-.52.43-.95.95-.95h10.68c.52,0,.95.43.95.95v.95ZM186.93,343.77h11.83v-.57c0-.32-.26-.57-.57-.57h-10.68c-.32,0-.57.26-.57.57v.57Z" fill="#b18c75"/>
      <path d="M195.09,352.29h-4.5l.43-3.09c.05-.3-.11-.59-.39-.72-1.84-.86-3.06-1.87-3.06-4.01v-.51h.38v.51c0,1.94,1.09,2.84,2.84,3.67.44.2.68.65.6,1.11l-.37,2.66h3.64l-.37-2.67c-.08-.45.16-.9.59-1.11,1.76-.85,2.85-1.76,2.85-3.66v-.51h.38v.51c0,2.09-1.23,3.11-3.07,4-.28.13-.43.42-.38.71l.43,3.11Z" fill="#b18c75"/>
      <path d="M197.61,337.86h-.38v-1.02c0-.46-.37-.83-.83-.83h-7.12c-.46,0-.83.37-.83.83v1.02h-.38v-1.02c0-.67.54-1.21,1.21-1.21h7.12c.66,0,1.21.54,1.21,1.21v1.02Z" fill="#b18c75"/>
      <polygon points="197.61 342.43 197.23 342.43 197.23 338.04 188.45 338.04 188.45 342.43 188.08 342.43 188.08 337.67 197.61 337.67 197.61 342.43" fill="#b18c75"/>
      <rect x="189.79" y="351.91" width="6.1" height=".38" fill="#b18c75"/>
      <rect x="195.2" y="339.38" width=".38" height=".51" fill="#b18c75"/>
    </g>
    <g id="pdf-def-icon-closet">
      <path d="M274.99,351.68h-5.78c-1.19,0-2.15-.96-2.15-2.15v-7.82h4.01v.38h-3.63v7.44c0,.98.79,1.77,1.77,1.77h5.78v.38Z" fill="#b18c75"/>
      <path d="M283.7,351.68h-5.78v-.38h5.78c.98,0,1.77-.79,1.77-1.77v-7.44h-3.63v-.38h4.01v7.82c0,1.18-.96,2.15-2.15,2.15Z" fill="#b18c75"/>
      <rect x="272.54" y="341.71" width="7.84" height=".38" fill="#b18c75"/>
      <path d="M284.25,356.21h-15.54c-.64,0-1.17-.52-1.17-1.17v-4.28h.38v4.28c0,.44.35.79.79.79h15.54c.44,0,.79-.35.79-.79v-4.28h.38v4.28c0,.64-.52,1.17-1.17,1.17Z" fill="#b18c75"/>
      <path d="M281.11,346.21c-.51,0-.92-.41-.92-.92v-8.07c0-2.02-1.64-3.67-3.67h-.12c-2.02,0-3.67,1.64-3.67,3.67v8.07c0,.51-.41.92-.92.92s-.92-.41-.92-.92v-8.07c0-3.04,2.47-5.52,5.51-5.52h.12c3.04,0,5.51,2.47,5.51,5.52v8.07c0,.51-.41.92-.92.92ZM276.4,333.18h.12c2.23,0,4.05,1.82,4.05,4.05v8.07c0,.3.24.55.55.55s.55-.25.55-.55v-8.07c0-2.83-2.3-5.14-5.14-5.14h-.12c-2.83,0-5.14,2.3-5.14,5.14v8.07c0,.3.24.55.55.55s.55-.25.55-.55v-8.07c0-2.23,1.82-4.05,4.05-4.05Z" fill="#b18c75"/>
      <path d="M278.12,353.15h-3.32v-3.32h3.32v3.32ZM275.18,352.77h2.56v-2.56h-2.56v2.56Z" fill="#b18c75"/>
    </g>
  </defs>
  <rect x="-2.83" y="-2.83" width="617.67" height="797.67" fill="#fff"/>
  <!-- Render + PDF: ruta relativa resuelta en generateReservationPDF (fetch → data URL) -->
  <image
    id="header-render"
    x="0"
    y="0"
    width="612"
    height="347"
    preserveAspectRatio="none"
    href="imagen_pdf_top.png"
    xlink:href="imagen_pdf_top.png"
  />
  <g id="Layer_1" data-name="Layer 1">
    <text transform="translate(56.69 80.41)" fill="#ee7e0c" font-family="TheSeasons-Regular, &apos;The Seasons&apos;" font-size="29.41"><tspan x="0" y="0" letter-spacing=".1em">C</tspan><tspan x="24.74" y="0" letter-spacing=".05em">O</tspan><tspan x="50.12" y="0" letter-spacing=".1em">TIZ</tspan><tspan x="98.71" y="0" letter-spacing=".05em">A</tspan><tspan x="119.09" y="0" letter-spacing=".1em">CI</tspan><tspan x="154.53" y="0" letter-spacing=".08em">Ó</tspan><tspan x="180.76" y="0" letter-spacing=".1em">N</tspan></text>
    <text transform="translate(56.05 543.59)" fill="#ee7e0c" font-family="TheSeasons-Bold, &apos;The Seasons&apos;" font-size="15" font-weight="700"><tspan x="0" y="0" letter-spacing=".1em">INVERSI</tspan><tspan x="65.04" y="0" letter-spacing=".07em">Ó</tspan><tspan x="78.45" y="0" letter-spacing=".1em">N</tspan></text>
    <text transform="translate(56.05 526.44)" fill="#654a3b" font-family="SharpSansNo1-Semibold, &apos;RVMSC P+ Sharp Sans No 1&apos;" font-size="12" font-weight="600" letter-spacing=".1em"><tspan x="0" y="0">PLAN DE</tspan></text>
    <text transform="translate(378.09 543.43)" fill="#ee7e0c" font-family="TheSeasons-Bold, &apos;The Seasons&apos;" font-size="15" font-weight="700"><tspan x="0" y="0" letter-spacing=".1em">COMPLEMEN</tspan><tspan x="106.51" y="0" letter-spacing=".03em">T</tspan><tspan x="115.42" y="0" letter-spacing=".1em">ARI</tspan><tspan x="143.04" y="0" letter-spacing=".09em">A</tspan><tspan x="154.02" y="0" letter-spacing=".1em">S</tspan></text>
    <text transform="translate(378.09 526.44)" fill="#654a3b" font-family="SharpSansNo1-Semibold, &apos;RVMSC P+ Sharp Sans No 1&apos;" font-size="12" font-weight="600" letter-spacing=".1em"><tspan x="0" y="0">CONDICIONES</tspan></text>
    <g>
      <text transform="translate(56.75 589.33)" fill="#ee7e0c" font-family="TheSeasons-Regular, &apos;The Seasons&apos;" font-size="9" letter-spacing=".1em"><tspan x="0" y="0">$180,950.00</tspan></text>
      <text transform="translate(57.34 575.52)" fill="#654a3b" font-family="SharpSansNo1-Medium, &apos;Sharp Sans No1 Medium&apos;" font-size="10" font-weight="500"><tspan x="0" y="0" letter-spacing=".1em">PR</tspan><tspan x="14.12" y="0" letter-spacing=".1em">E</tspan><tspan x="20.92" y="0" letter-spacing=".1em">CIO </tspan><tspan x="46.19" y="0" letter-spacing=".03em">TO</tspan><tspan x="61.28" y="0" letter-spacing="-.03em">T</tspan><tspan x="67.07" y="0" letter-spacing=".1em">AL</tspan></text>
    </g>
    <g>
      <text transform="translate(56.75 628.67)" fill="#ee7e0c" font-family="TheSeasons-Regular, &apos;The Seasons&apos;" font-size="9" letter-spacing=".1em"><tspan x="0" y="0">$18,095.00</tspan></text>
      <text transform="translate(57.34 615.14)" fill="#654a3b" font-family="SharpSansNo1-Medium, &apos;Sharp Sans No1 Medium&apos;" font-size="10" font-weight="500" letter-spacing=".1em"><tspan x="0" y="0">PRIMA (10.0%)</tspan></text>
    </g>
    <g>
      <text transform="translate(56.75 667.76)" fill="#ee7e0c" font-family="TheSeasons-Regular, &apos;The Seasons&apos;" font-size="9" letter-spacing=".1em"><tspan x="0" y="0">$162,855.00</tspan></text>
      <text transform="translate(57.34 655)" fill="#654a3b" font-family="SharpSansNo1-Medium, &apos;Sharp Sans No1 Medium&apos;" font-size="10" font-weight="500"><tspan x="0" y="0" letter-spacing=".1em">MON</tspan><tspan x="27.48" y="0" letter-spacing=".03em">T</tspan><tspan x="33.82" y="0" letter-spacing=".1em">O A FINANCIAR/</tspan><tspan x="126.13" y="0" letter-spacing="0em">P</tspan><tspan x="132.41" y="0" letter-spacing=".06em">A</tspan><tspan x="140.01" y="0" letter-spacing=".1em">GO DE CON</tspan><tspan x="207.53" y="0" letter-spacing="-.03em">T</tspan><tspan x="213.32" y="0" letter-spacing=".1em">A</tspan><tspan x="221.37" y="0" letter-spacing=".11em">D</tspan><tspan x="229.53" y="0" letter-spacing=".1em">O</tspan></text>
    </g>
    <g>
      <text transform="translate(378.4 589.33)" fill="#ee7e0c" font-family="TheSeasons-Regular, &apos;The Seasons&apos;" font-size="9" letter-spacing=".1em"><tspan x="0" y="0">$1,000.00</tspan></text>
      <text transform="translate(378.99 575.52)" fill="#654a3b" font-family="SharpSansNo1-Medium, &apos;Sharp Sans No1 Medium&apos;" font-size="10" font-weight="500"><tspan x="0" y="0" letter-spacing=".1em">RESE</tspan><tspan x="27.07" y="0" letter-spacing=".09em">R</tspan><tspan x="33.86" y="0" letter-spacing="-.03em">V</tspan><tspan x="40.36" y="0" letter-spacing=".1em">A</tspan></text>
    </g>
    <g>
      <text transform="translate(378.4 630.72)" fill="#ee7e0c" font-family="TheSeasons-Regular, &apos;The Seasons&apos;" font-size="9" letter-spacing=".1em"><tspan x="0" y="0">$1,000.00</tspan></text>
      <text transform="translate(378.99 617.61)" fill="#654a3b" font-family="SharpSansNo1-Medium, &apos;Sharp Sans No1 Medium&apos;" font-size="10" font-weight="500"><tspan x="0" y="0" letter-spacing=".1em">O</tspan><tspan x="9.5" y="0" letter-spacing=".11em">P</tspan><tspan x="16.78" y="0" letter-spacing=".1em">CIÓN DE COMPRA (15 DÍ</tspan><tspan x="156.41" y="0" letter-spacing=".11em">A</tspan><tspan x="164.61" y="0" letter-spacing=".1em">S)</tspan></text>
    </g>
    <g>
      <text transform="translate(378.4 666.95)" fill="#ee7e0c" font-family="TheSeasons-Regular, &apos;The Seasons&apos;" font-size="9" letter-spacing=".1em"><tspan x="0" y="0">$1,238.08/MES</tspan></text>
      <text transform="translate(378.99 654.18)" fill="#654a3b" font-family="SharpSansNo1-Medium, &apos;Sharp Sans No1 Medium&apos;" font-size="10" font-weight="500"><tspan x="0" y="0" letter-spacing=".1em">PRIMA FR</tspan><tspan x="52.05" y="0" letter-spacing=".06em">A</tspan><tspan x="59.65" y="0" letter-spacing=".1em">CCIONA</tspan><tspan x="106.73" y="0" letter-spacing=".05em">D</tspan><tspan x="114.34" y="0" letter-spacing=".1em">A</tspan></text>
    </g>
    <g>
      <text transform="translate(378.4 702.74)" fill="#ee7e0c" font-family="TheSeasons-Regular, &apos;The Seasons&apos;" font-size="9" letter-spacing=".1em"><tspan x="0" y="0">$3,619.00</tspan></text>
      <text transform="translate(378.99 689.98)" fill="#654a3b" font-family="SharpSansNo1-Medium, &apos;Sharp Sans No1 Medium&apos;" font-size="10" font-weight="500"><tspan x="0" y="0" letter-spacing=".07em">G</tspan><tspan x="9.1" y="0" letter-spacing=".11em">A</tspan><tspan x="17.3" y="0" letter-spacing=".07em">S</tspan><tspan x="23.68" y="0" letter-spacing=".03em">T</tspan><tspan x="30.02" y="0" letter-spacing=".1em">O</tspan><tspan x="39.47" y="0" letter-spacing=".1em">S DE CIERRE AP</tspan><tspan x="126.29" y="0" letter-spacing=".1em">R</tspan><tspan x="133.28" y="0" letter-spacing=".06em">O</tspan><tspan x="142.38" y="0" letter-spacing=".1em">X. (2%)</tspan></text>
    </g>
    <text transform="translate(60.04 102.89)" fill="#654a3b" font-family="SharpSansNo1-Medium, &apos;Sharp Sans No1 Medium&apos;" font-size="11" font-weight="500"><tspan x="0" y="0" letter-spacing=".17em">15 de abr</tspan><tspan x="67.07" y="0" letter-spacing=".17em">i</tspan><tspan x="71.33" y="0" letter-spacing=".17em">l el 2026</tspan></text>
    <rect x="33.18" y="236.747" width="545.639" height="248.942" rx="20.199" ry="20.199" fill="#faf4f0" stroke="#ee7e0c" stroke-miterlimit="10" stroke-width="1.179"/>
    <text transform="translate(109.852 444.653)" font-family="SharpSansNo1-Medium, &apos;Sharp Sans No1 Medium&apos;" font-size="10" font-weight="500" letter-spacing=".17em"><tspan x="0" y="0">Piso 14</tspan></text>
    <text transform="translate(109.852 466.447)" font-family="SharpSansNo1-Medium, &apos;Sharp Sans No1 Medium&apos;" font-size="10" font-weight="500"><tspan x="0" y="0" letter-spacing=".17em">Vi</tspan><tspan x="12.32" y="0" letter-spacing=".16em">s</tspan><tspan x="18.72" y="0" letter-spacing=".15em">t</tspan><tspan x="23.85" y="0" letter-spacing=".17em">a E</tspan><tspan x="43.52" y="0" letter-spacing=".17em">s</tspan><tspan x="49.92" y="0" letter-spacing=".15em">t</tspan><tspan x="55.05" y="0" letter-spacing=".17em">e</tspan></text>
    <text transform="translate(226.865 466.37)" font-family="SharpSansNo1-Medium, &apos;Sharp Sans No1 Medium&apos;" font-size="10" font-weight="500"><tspan x="0" y="0" letter-spacing=".17em">81.3 m² </tspan><tspan x="51.15" y="0" letter-spacing=".15em">t</tspan><tspan x="56.28" y="0" letter-spacing=".14em">o</tspan><tspan x="63.83" y="0" letter-spacing=".15em">t</tspan><tspan x="68.96" y="0" letter-spacing=".17em">ales</tspan></text>
    <text transform="translate(266.908 302.734)" fill="#ee7e0c" font-family="SharpSansNo1-Medium, &apos;Sharp Sans No1 Medium&apos;" font-size="15.117" font-weight="500"><tspan x="0" y="0" letter-spacing=".125em">T</tspan><tspan x="11.096" y="0" letter-spacing=".2em">ORRE E</tspan></text>
    <g id="pdf-amenities-row">
      <line x1="128" y1="358" x2="128" y2="408" stroke="#e08333" stroke-width="0.55"/>
      <line x1="228" y1="358" x2="228" y2="408" stroke="#e08333" stroke-width="0.55"/>
      <line x1="328" y1="358" x2="328" y2="408" stroke="#e08333" stroke-width="0.55"/>
      <text id="pdf-amenity-m2" text-anchor="middle" transform="translate(92 396)" fill="#ee7e0c" font-family="SharpSansNo1-Semibold, &apos;Sharp Sans No1&apos;" font-size="18" font-weight="600"><tspan x="0" y="0" letter-spacing=".02em">67 m²</tspan></text>
      <g transform="translate(178 368) scale(1.26) translate(-107.5 -344.5)" fill="#b18c75">
        <path d="M117.93,351.61h-21.03v-5.54h21.03v5.54ZM97.28,351.23h20.28v-4.79h-20.28v4.79Z"/>
        <path d="M117.93,346.44h-21.03v-2.48c0-.74.6-1.34,1.34-1.34h18.36c.74,0,1.34.6,1.34,1.34v2.48ZM97.28,346.07h20.28v-2.11c0-.53-.43-.96-.96-.96h-18.36c-.53,0-.96.43-.96.96v2.11Z"/>
        <path d="M106.46,343h-5.54v-1.81c0-.79.64-1.44,1.44-1.44h2.67c.79,0,1.44.64,1.44,1.44v1.81ZM101.29,342.62h4.79v-1.43c0-.58-.48-1.06-1.06-1.06h-2.67c-.58,0-1.06.47-1.06,1.06v1.43Z"/>
        <path d="M113.92,343h-5.54v-1.81c0-.79.64-1.44,1.44-1.44h2.67c.79,0,1.44.64,1.44,1.44v1.81ZM108.75,342.62h4.79v-1.43c0-.58-.48-1.06-1.06-1.06h-2.67c-.58,0-1.06.47-1.06,1.06v1.43Z"/>
        <path d="M115.64,342.81h-.38v-5.16c0-.53-.43-.96-.96-.96h-13.77c-.53,0-.96.43-.96.96v5.16h-.38v-5.16c0-.74.6-1.34,1.34-1.34h13.77c.74,0,1.34.6,1.34,1.34v5.16Z"/>
      </g>
      <g transform="translate(278 368) scale(1.26) translate(-192 -344.5)" fill="#b18c75">
        <path d="M199.14,344.15h-12.58v-.95c0-.52.43-.95.95-.95h10.68c.52,0,.95.43.95.95v.95ZM186.93,343.77h11.83v-.57c0-.32-.26-.57-.57-.57h-10.68c-.32,0-.57.26-.57.57v.57Z"/>
        <path d="M195.09,352.29h-4.5l.43-3.09c.05-.3-.11-.59-.39-.72-1.84-.86-3.06-1.87-3.06-4.01v-.51h.38v.51c0,1.94,1.09,2.84,2.84,3.67.44.2.68.65.6,1.11l-.37,2.66h3.64l-.37-2.67c-.08-.45.16-.9.59-1.11,1.76-.85,2.85-1.76,2.85-3.66v-.51h.38v.51c0,2.09-1.23,3.11-3.07,4-.28.13-.43.42-.38.71l.43,3.11Z"/>
        <path d="M197.61,337.86h-.38v-1.02c0-.46-.37-.83-.83-.83h-7.12c-.46,0-.83.37-.83.83v1.02h-.38v-1.02c0-.67.54-1.21,1.21-1.21h7.12c.66,0,1.21.54,1.21,1.21v1.02Z"/>
        <polygon points="197.61 342.43 197.23 342.43 197.23 338.04 188.45 338.04 188.45 342.43 188.08 342.43 188.08 337.67 197.61 337.67 197.61 342.43"/>
        <rect x="189.79" y="351.91" width="6.1" height=".38"/>
        <rect x="195.2" y="339.38" width=".38" height=".51"/>
      </g>
      <g transform="translate(378 368) scale(1.26) translate(-278 -344.5)" fill="#b18c75">
        <path d="M274.99,351.68h-5.78c-1.19,0-2.15-.96-2.15-2.15v-7.82h4.01v.38h-3.63v7.44c0,.98.79,1.77,1.77,1.77h5.78v.38Z"/>
        <path d="M283.7,351.68h-5.78v-.38h5.78c.98,0,1.77-.79,1.77-1.77v-7.44h-3.63v-.38h4.01v7.82c0,1.18-.96,2.15-2.15,2.15Z"/>
        <rect x="272.54" y="341.71" width="7.84" height=".38"/>
        <path d="M284.25,356.21h-15.54c-.64,0-1.17-.52-1.17-1.17v-4.28h.38v4.28c0,.44.35.79.79.79h15.54c.44,0,.79-.35.79-.79v-4.28h.38v4.28c0,.64-.52,1.17-1.17,1.17Z"/>
        <path d="M281.11,346.21c-.51,0-.92-.41-.92-.92v-8.07c0-2.02-1.64-3.67-3.67h-.12c-2.02,0-3.67,1.64-3.67,3.67v8.07c0,.51-.41.92-.92.92s-.92-.41-.92-.92v-8.07c0-3.04,2.47-5.52,5.51-5.52h.12c3.04,0,5.51,2.47,5.51,5.52v8.07c0,.51-.41.92-.92.92ZM276.4,333.18h.12c2.23,0,4.05,1.82,4.05,4.05v8.07c0,.3.24.55.55.55s.55-.25.55-.55v-8.07c0-2.83-2.3-5.14-5.14-5.14h-.12c-2.83,0-5.14,2.3-5.14,5.14v8.07c0,.3.24.55.55.55s.55-.25.55-.55v-8.07c0-2.23,1.82-4.05,4.05-4.05Z"/>
        <path d="M278.12,353.15h-3.32v-3.32h3.32v3.32ZM275.18,352.77h2.56v-2.56h-2.56v2.56Z"/>
      </g>
      <text id="pdf-amenity-hab" text-anchor="middle" transform="translate(178 396)" font-family="SharpSansNo1-Medium, &apos;Sharp Sans No1 Medium&apos;" font-size="8" font-weight="500" fill="#654a3b"><tspan x="0" y="0" letter-spacing=".02em">2 Habitaciones</tspan></text>
      <text id="pdf-amenity-bath" text-anchor="middle" transform="translate(278 396)" font-family="SharpSansNo1-Medium, &apos;Sharp Sans No1 Medium&apos;" font-size="8" font-weight="500" fill="#654a3b"><tspan x="0" y="0" letter-spacing=".02em">2 Baños</tspan></text>
      <text id="pdf-amenity-extra" text-anchor="middle" transform="translate(378 396)" font-family="SharpSansNo1-Medium, &apos;Sharp Sans No1 Medium&apos;" font-size="8" font-weight="500" fill="#654a3b"><tspan x="0" y="0" letter-spacing=".02em">Walk in Closet</tspan></text>
    </g>
    <text transform="translate(226.865 443.222)" font-family="SharpSansNo1-Medium, &apos;Sharp Sans No1 Medium&apos;" font-size="10" font-weight="500"><tspan x="0" y="0" letter-spacing=".17em">14.3 m² </tspan><tspan x="51.15" y="0" letter-spacing=".17em">p</tspan><tspan x="59.19" y="0" letter-spacing=".18em">a</tspan><tspan x="67.27" y="0" letter-spacing=".14em">r</tspan><tspan x="72.56" y="0" letter-spacing=".17em">queo</tspan></text>
    <text transform="translate(191.66 279.04)" fill="#654a3b" font-family="TheSeasons-Bold, &apos;The Seasons&apos;" font-size="20" font-weight="700"><tspan x="0" y="0" letter-spacing=".1em">A</tspan><tspan x="14.86" y="0" letter-spacing=".01em">P</tspan><tspan x="26.24" y="0" letter-spacing=".1em">A</tspan><tspan x="41.1" y="0" letter-spacing=".07em">R</tspan><tspan x="54.86" y="0" letter-spacing=".03em">T</tspan><tspan x="66.74" y="0" letter-spacing=".1em">AMEN</tspan><tspan x="129.44" y="0" letter-spacing=".06em">T</tspan><tspan x="141.84" y="0" letter-spacing=".1em">O E-14-8</tspan></text>
    <text id="pdf-entrega" transform="translate(528 466.37)" text-anchor="end" fill="#654a3b" font-family="SharpSansNo1-Medium, &apos;Sharp Sans No1 Medium&apos;" font-size="9" font-weight="500"><tspan x="0" y="0" letter-spacing="0">Entrega</tspan></text>
    <g id="pdf-planta-vector-art">
      <g>
        <g>
          <path d="M76.04,368.04c0-1.03.95-1.73,1.87-2.38.86-.62,1.73-1.2,1.73-1.98s-.6-1.33-1.5-1.33c-.78,0-1.33.46-1.64,1.08l-.45-.24c.36-.74,1.11-1.3,2.08-1.3,1.23,0,2.05.8,2.05,1.81s-.97,1.68-1.88,2.32c-.87.63-1.7,1.21-1.7,2.04v.04h3.68v.5h-4.23v-.53Z" fill="#6f4633"/>
          <path d="M88.12,365.51h-3.82v3.07h-.53v-6.61h.53v3.04h3.82v-3.04h.53v6.61h-.53v-3.07Z" fill="#6f4633"/>
          <path d="M89.77,366.31c0-1.3,1-2.36,2.33-2.36.69,0,1.46.37,1.83,1.03v-.94h.52v4.53h-.52v-.94c-.37.66-1.14,1.03-1.83,1.03-1.32,0-2.33-1.06-2.33-2.36ZM93.98,366.31c0-1.03-.81-1.88-1.86-1.88s-1.84.84-1.84,1.88.82,1.88,1.84,1.88,1.86-.84,1.86-1.88Z" fill="#6f4633"/>
          <path d="M96.24,367.64v.94h-.5v-6.61h.51v3.02c.37-.65,1.13-1.02,1.82-1.02,1.34,0,2.34,1.06,2.34,2.36s-1.01,2.36-2.34,2.36c-.7,0-1.46-.37-1.83-1.03ZM99.88,366.31c0-1.04-.81-1.88-1.83-1.88s-1.87.85-1.87,1.88.81,1.88,1.87,1.88,1.83-.84,1.83-1.88Z" fill="#6f4633"/>
          <path d="M101.49,361.97h.52v1.31h-.52v-1.31ZM101.49,364.05h.52v4.53h-.52v-4.53Z" fill="#6f4633"/>
          <path d="M102.94,364.05h.78v-1.06l.53-.31v1.37h1.15v.46h-1.15v2.41c0,1,.2,1.18,1.15,1.18v.48h-.07c-1.26,0-1.6-.34-1.6-1.65v-2.42h-.78v-.46Z" fill="#6f4633"/>
          <path d="M106.03,366.31c0-1.3,1-2.36,2.33-2.36.69,0,1.46.37,1.83,1.03v-.94h.52v4.53h-.52v-.94c-.37.66-1.14,1.03-1.83,1.03-1.32,0-2.33-1.06-2.33-2.36ZM110.24,366.31c0-1.03-.81-1.88-1.86-1.88s-1.84.84-1.84,1.88.82,1.88,1.84,1.88,1.86-.84,1.86-1.88Z" fill="#6f4633"/>
          <path d="M111.8,366.31c0-1.34,1.04-2.36,2.36-2.36.99,0,1.79.56,2.14,1.38l-.47.2c-.3-.68-.9-1.11-1.68-1.11-1.04,0-1.84.84-1.84,1.88s.81,1.88,1.87,1.88c.81,0,1.39-.49,1.67-1.15l.48.2c-.35.83-1.11,1.42-2.16,1.42-1.36,0-2.37-1.05-2.37-2.36Z" fill="#6f4633"/>
          <path d="M117.36,361.97h.52v1.31h-.52v-1.31ZM117.36,364.05h.52v4.53h-.52v-4.53Z" fill="#6f4633"/>
          <path d="M118.97,366.31c0-1.32,1.04-2.36,2.35-2.36s2.36,1.03,2.36,2.36-1.05,2.36-2.36,2.36-2.35-1.03-2.35-2.36ZM123.15,366.31c0-1.04-.81-1.88-1.83-1.88s-1.83.84-1.83,1.88.81,1.88,1.83,1.88,1.83-.84,1.83-1.88Z" fill="#6f4633"/>
          <path d="M124.76,364.05h.5v.85c.31-.55.91-.94,1.68-.94,1.21,0,2,.79,2,2.08v2.54h-.52v-2.54c0-.97-.56-1.61-1.55-1.61-.92,0-1.61.7-1.61,1.62v2.53h-.51v-4.53Z" fill="#6f4633"/>
          <path d="M130.03,366.34c0-1.34,1-2.38,2.35-2.38s2.32.94,2.32,2.3v.23h-4.18c.07,1,.82,1.72,1.88,1.72.84,0,1.41-.43,1.71-1.13l.45.22c-.41.87-1.11,1.38-2.16,1.38-1.47,0-2.38-1.01-2.38-2.33ZM130.53,366.02h3.62c-.1-.95-.78-1.59-1.78-1.59-.95,0-1.69.68-1.84,1.59Z" fill="#6f4633"/>
          <path d="M135.41,367.82l.41-.33c.31.42.81.72,1.42.72.78,0,1.17-.43,1.17-.91,0-.56-.63-.68-1.3-.84-.72-.18-1.49-.42-1.49-1.26,0-.67.61-1.26,1.59-1.26.65,0,1.25.25,1.62.67l-.39.32c-.31-.35-.71-.54-1.23-.54-.69,0-1.08.35-1.08.81,0,.53.61.67,1.26.83.73.18,1.52.41,1.52,1.28,0,.62-.51,1.36-1.69,1.36-.78,0-1.43-.34-1.81-.85Z" fill="#6f4633"/>
        </g>
        <g>
          <path d="M117.93,351.61h-21.03v-5.54h21.03v5.54ZM97.28,351.23h20.28v-4.79h-20.28v4.79Z" fill="#b18c75"/>
          <path d="M117.93,346.44h-21.03v-2.48c0-.74.6-1.34,1.34-1.34h18.36c.74,0,1.34.6,1.34,1.34v2.48ZM97.28,346.07h20.28v-2.11c0-.53-.43-.96-.96-.96h-18.36c-.53,0-.96.43-.96.96v2.11Z" fill="#b18c75"/>
          <path d="M106.46,343h-5.54v-1.81c0-.79.64-1.44,1.44-1.44h2.67c.79,0,1.44.64,1.44,1.44v1.81ZM101.29,342.62h4.79v-1.43c0-.58-.48-1.06-1.06-1.06h-2.67c-.58,0-1.06.47-1.06,1.06v1.43Z" fill="#b18c75"/>
          <path d="M113.92,343h-5.54v-1.81c0-.79.64-1.44,1.44-1.44h2.67c.79,0,1.44.64,1.44,1.44v1.81ZM108.75,342.62h4.79v-1.43c0-.58-.48-1.06-1.06-1.06h-2.67c-.58,0-1.06.47-1.06,1.06v1.43Z" fill="#b18c75"/>
          <path d="M115.64,342.81h-.38v-5.16c0-.53-.43-.96-.96-.96h-13.77c-.53,0-.96.43-.96.96v5.16h-.38v-5.16c0-.74.6-1.34,1.34-1.34h13.77c.74,0,1.34.6,1.34,1.34v5.16Z" fill="#b18c75"/>
        </g>
      </g>
      <g>
        <g>
          <path d="M176.14,368.72c0-1.03.95-1.73,1.87-2.38.86-.62,1.73-1.2,1.73-1.98s-.6-1.33-1.5-1.33c-.78,0-1.33.46-1.64,1.08l-.45-.24c.36-.74,1.11-1.3,2.08-1.3,1.23,0,2.05.8,2.05,1.81s-.97,1.68-1.87,2.32c-.87.63-1.7,1.21-1.7,2.04v.04h3.68v.5h-4.23v-.53Z" fill="#6f4633"/>
          <path d="M183.87,362.64h2.53c1.13,0,1.93.71,1.93,1.71,0,.66-.33,1.21-.93,1.47.69.25,1.1.84,1.1,1.61,0,1.09-.82,1.82-1.97,1.82h-2.65v-6.61ZM184.4,363.12v2.48h2.08c.82,0,1.32-.54,1.32-1.25s-.59-1.23-1.41-1.23h-1.99ZM184.4,366.09v2.69h2.12c.85,0,1.45-.58,1.45-1.34s-.56-1.35-1.46-1.35h-2.11Z" fill="#6f4633"/>
          <path d="M189.46,366.99c0-1.3,1-2.36,2.33-2.36.69,0,1.46.37,1.83,1.03v-.94h.52v4.53h-.52v-.94c-.37.66-1.14,1.03-1.83,1.03-1.32,0-2.33-1.06-2.33-2.36ZM193.67,366.99c0-1.03-.81-1.88-1.86-1.88s-1.84.84-1.84,1.88.82,1.88,1.84,1.88,1.86-.84,1.86-1.88Z" fill="#6f4633"/>
          <path d="M195.48,364.73h.5v.85c.31-.55.92-.94,1.69-.94,1.21,0,2,.79,2,2.08v2.54h-.52v-2.54c0-.97-.56-1.61-1.55-1.61-.91,0-1.61.7-1.61,1.62v2.53h-.51v-4.53ZM196.78,363.16c.3,0,.54.13.78.27.23.14.43.28.65.28.27,0,.45-.16.45-.53h.42c0,.61-.31.99-.86.99-.34,0-.61-.17-.85-.32-.21-.12-.37-.25-.59-.25-.24,0-.42.17-.42.53h-.43c0-.6.35-.98.84-.98Z" fill="#6f4633"/>
          <path d="M200.74,366.99c0-1.32,1.04-2.36,2.35-2.36s2.36,1.03,2.36,2.36-1.05,2.36-2.36,2.36-2.35-1.03-2.35-2.36ZM204.92,366.99c0-1.04-.81-1.88-1.83-1.88s-1.83.84-1.83,1.88.81,1.88,1.83,1.88,1.83-.84,1.83-1.88Z" fill="#6f4633"/>
          <path d="M206.16,368.5l.41-.33c.31.42.81.73,1.42.73.78,0,1.17-.43,1.17-.91,0-.56-.63-.68-1.3-.84-.72-.18-1.49-.42-1.49-1.26,0-.67.61-1.26,1.59-1.26.65,0,1.25.25,1.62.67l-.39.32c-.31-.35-.71-.54-1.23-.54-.69,0-1.08.35-1.08.81,0,.53.61.67,1.26.83.73.18,1.52.41,1.52,1.28,0,.62-.51,1.36-1.69,1.36-.78,0-1.43-.34-1.81-.85Z" fill="#6f4633"/>
        </g>
        <g>
          <g>
            <path d="M199.14,344.15h-12.58v-.95c0-.52.43-.95.95-.95h10.68c.52,0,.95.43.95.95v.95ZM186.93,343.77h11.83v-.57c0-.32-.26-.57-.57-.57h-10.68c-.32,0-.57.26-.57.57v.57Z" fill="#b18c75"/>
            <path d="M195.09,352.29h-4.5l.43-3.09c.05-.3-.11-.59-.39-.72-1.84-.86-3.06-1.87-3.06-4.01v-.51h.38v.51c0,1.94,1.09,2.84,2.84,3.67.44.2.68.65.6,1.11l-.37,2.66h3.64l-.37-2.67c-.08-.45.16-.9.59-1.11,1.76-.85,2.85-1.76,2.85-3.66v-.51h.38v.51c0,2.09-1.23,3.11-3.07,4-.28.13-.43.42-.38.71l.43,3.11Z" fill="#b18c75"/>
            <path d="M197.61,337.86h-.38v-1.02c0-.46-.37-.83-.83-.83h-7.12c-.46,0-.83.37-.83.83v1.02h-.38v-1.02c0-.67.54-1.21,1.21-1.21h7.12c.66,0,1.21.54,1.21,1.21v1.02Z" fill="#b18c75"/>
            <polygon points="197.61 342.43 197.23 342.43 197.23 338.04 188.45 338.04 188.45 342.43 188.08 342.43 188.08 337.67 197.61 337.67 197.61 342.43" fill="#b18c75"/>
            <rect x="189.79" y="351.91" width="6.1" height=".38" fill="#b18c75"/>
          </g>
          <rect x="195.2" y="339.38" width=".38" height=".51" fill="#b18c75"/>
        </g>
      </g>
      <g>
        <g>
          <path d="M246.43,366.57h.55l1.68,5.81,1.97-5.81h.5l1.96,5.81,1.75-5.81h.54l-2.02,6.61h-.53l-1.96-5.8-1.97,5.8h-.53l-1.95-6.61Z" fill="#6f4633"/>
          <path d="M255.58,370.92c0-1.3,1-2.36,2.33-2.36.69,0,1.46.37,1.83,1.03v-.94h.52v4.53h-.52v-.94c-.37.66-1.14,1.03-1.83,1.03-1.32,0-2.33-1.06-2.33-2.36ZM259.79,370.92c0-1.03-.81-1.88-1.86-1.88s-1.84.84-1.84,1.88.82,1.88,1.84,1.88,1.86-.84,1.86-1.88Z" fill="#6f4633"/>
          <path d="M261.55,366.57h.53v6.61h-.53v-6.61Z" fill="#6f4633"/>
          <path d="M264.96,370.87l-1.01,1.06v1.26h-.51v-6.61h.51v4.76l2.57-2.67h.66l-1.85,1.9,1.93,2.63h-.61l-1.69-2.32Z" fill="#6f4633"/>
          <path d="M270.47,366.57h.52v1.31h-.52v-1.31ZM270.47,368.66h.52v4.53h-.52v-4.53Z" fill="#6f4633"/>
          <path d="M272.29,368.66h.5v.85c.31-.55.92-.94,1.68-.94,1.21,0,2,.79,2,2.08v2.54h-.52v-2.54c0-.97-.56-1.61-1.55-1.61-.91,0-1.61.7-1.61,1.62v2.53h-.51v-4.53Z" fill="#6f4633"/>
          <path d="M279.88,369.88c0-1.88,1.52-3.4,3.4-3.4,1.24,0,2.32.67,2.92,1.67l-.45.26c-.49-.85-1.39-1.44-2.46-1.44-1.61,0-2.86,1.31-2.86,2.91s1.25,2.9,2.86,2.9c1.16,0,2.07-.62,2.55-1.52l.46.24c-.58,1.07-1.68,1.78-3.01,1.78-1.88,0-3.4-1.52-3.4-3.4Z" fill="#6f4633"/>
          <path d="M287.26,366.57h.53v6.61h-.53v-6.61Z" fill="#6f4633"/>
          <path d="M288.89,370.92c0-1.32,1.04-2.36,2.35-2.36s2.36,1.03,2.36,2.36-1.05,2.36-2.36,2.36-2.35-1.03-2.35-2.36ZM293.06,370.92c0-1.04-.81-1.88-1.83-1.88s-1.83.84-1.83,1.88.81,1.88,1.83,1.88,1.83-.84,1.83-1.88Z" fill="#6f4633"/>
          <path d="M294.31,372.42l.41-.33c.31.42.81.73,1.42.73.78,0,1.17-.43,1.17-.91,0-.56-.63-.68-1.3-.84-.72-.18-1.49-.42-1.49-1.26,0-.67.61-1.26,1.59-1.26.65,0,1.25.25,1.62.67l-.39.32c-.31-.35-.71-.54-1.23-.54-.69,0-1.08.35-1.08.81,0,.53.61.67,1.26.83.73.18,1.52.41,1.52,1.28,0,.62-.51,1.36-1.69,1.36-.78,0-1.43-.34-1.81-.85Z" fill="#6f4633"/>
          <path d="M298.72,370.95c0-1.34,1-2.38,2.35-2.38s2.32.94,2.32,2.3v.23h-4.18c.07,1,.82,1.72,1.89,1.72.84,0,1.41-.43,1.71-1.13l.45.22c-.41.87-1.11,1.38-2.16,1.38-1.47,0-2.38-1.01-2.38-2.33ZM299.23,370.62h3.62c-.1-.95-.78-1.59-1.78-1.59-.95,0-1.69.68-1.84,1.59Z" fill="#6f4633"/>
          <path d="M303.99,368.66h.78v-1.06l.53-.31v1.37h1.15v.46h-1.15v2.41c0,1.01.2,1.18,1.15,1.18v.48h-.07c-1.26,0-1.6-.34-1.6-1.65v-2.42h-.78v-.46Z" fill="#6f4633"/>
        </g>
        <g>
          <path d="M274.99,351.68h-5.78c-1.19,0-2.15-.96-2.15-2.15v-7.82h4.01v.38h-3.63v7.44c0,.98.79,1.77,1.77,1.77h5.78v.38Z" fill="#b18c75"/>
          <path d="M283.7,351.68h-5.78v-.38h5.78c.98,0,1.77-.79,1.77-1.77v-7.44h-3.63v-.38h4.01v7.82c0,1.18-.96,2.15-2.15,2.15Z" fill="#b18c75"/>
          <rect x="272.54" y="341.71" width="7.84" height=".38" fill="#b18c75"/>
          <path d="M284.25,356.21h-15.54c-.64,0-1.17-.52-1.17-1.17v-4.28h.38v4.28c0,.44.35.79.79.79h15.54c.44,0,.79-.35.79-.79v-4.28h.38v4.28c0,.64-.52,1.17-1.17,1.17Z" fill="#b18c75"/>
          <path d="M281.11,346.21c-.51,0-.92-.41-.92-.92v-8.07c0-2.02-1.64-3.67-3.67-3.67h-.12c-2.02,0-3.67,1.64-3.67,3.67v8.07c0,.51-.41.92-.92.92s-.92-.41-.92-.92v-8.07c0-3.04,2.47-5.52,5.51-5.52h.12c3.04,0,5.51,2.47,5.51,5.52v8.07c0,.51-.41.92-.92.92ZM276.4,333.18h.12c2.23,0,4.05,1.82,4.05,4.05v8.07c0,.3.24.55.55.55s.55-.25.55-.55v-8.07c0-2.83-2.3-5.14-5.14-5.14h-.12c-2.83,0-5.14,2.3-5.14,5.14v8.07c0,.3.24.55.55.55s.55-.25.55-.55v-8.07c0-2.23,1.82-4.05,4.05-4.05Z" fill="#b18c75"/>
          <path d="M278.12,353.15h-3.32v-3.32h3.32v3.32ZM275.18,352.77h2.56v-2.56h-2.56v2.56Z" fill="#b18c75"/>
        </g>
      </g>
      <rect x="154.33" y="335.77" width=".66" height="36.05" fill="#e08333"/>
      <rect x="230.69" y="335.77" width=".66" height="36.05" fill="#e08333"/>
    </g>
    <g id="pdf-entrega-vector-static">
      <g>
        <path d="M458.09,462.49c.32-.09.41-.33.41-1.18v-4.2c0-1.18-.22-1.47-.63-1.59v-.13h1.25l2.7,4.45,2.65-4.45h1.17v.13c-.41.12-.63.41-.63,1.59v4.2c0,.85.09,1.09.41,1.18v.13h-1.67v-.13c.31-.09.41-.33.41-1.18v-5.08l-2.62,4.43h-.2l-2.65-4.35v4.59c0,1.18.25,1.47.7,1.59v.13h-1.3v-.13Z" fill="#e08333"/>
        <path d="M466.92,462.49c.29-.09.55-.3.87-1.09l2.04-5.04c.07-.19.06-.32-.02-.49l-.09-.22.78-.35,2.54,6.11c.32.77.57.98.79,1.07v.13h-1.6v-.13c.32-.09.24-.3-.09-1.07l-.63-1.52h-2.91l-.61,1.51c-.27.67-.24,1.01.12,1.09v.13h-1.17v-.13ZM471.42,459.74l-1.42-3.4-1.37,3.4h2.79Z" fill="#e08333"/>
        <path d="M475.88,462.49c.31-.09.41-.33.4-1.18v-1.94l-1.56-2.83c-.4-.73-.7-.92-.92-1.01v-.13h1.63v.13c-.31.09-.19.28.23,1.01l1.44,2.56,1.45-2.56c.35-.63.36-.94-.03-1.01v-.13h1.23v.13c-.28.09-.6.28-1.01,1.01l-1.58,2.81v1.96c0,.85.09,1.09.41,1.18v.13h-1.68v-.13Z" fill="#e08333"/>
        <path d="M480.46,459c0-2.12,1.49-3.69,3.68-3.69,1.75,0,3.66,1.2,3.66,3.73s-1.92,3.69-3.66,3.69-3.68-1.17-3.68-3.73ZM486.99,459.72c-.07-2.16-1.43-4.18-3.28-4.18-1.57,0-2.49,1.17-2.43,2.85.07,2.08,1.44,4.07,3.29,4.07,1.65,0,2.47-1.2,2.42-2.75Z" fill="#e08333"/>
        <path d="M495.95,457.24c0-.86-.53-1.39-1.32-1.39-.54,0-1.09.23-1.52.71l-.08-.09c.57-.68,1.25-1.16,2.17-1.16s1.66.61,1.67,1.66c.01,1.95-2.4,3.83-3.66,4.95h2.36c1.02,0,1.24-.2,1.43-.76h.1s-.15,1.46-.15,1.46h-4.54v-.14c1.43-1.37,3.54-3.31,3.54-5.24Z" fill="#e08333"/>
        <path d="M498.81,458.99c0-2.25,1.52-3.67,3.11-3.67,1.47,0,3.17,1.22,3.17,3.74,0,2.25-1.52,3.67-3.1,3.67-1.47,0-3.18-1.22-3.18-3.74ZM504.25,459.69c.01-2.08-1.05-4.16-2.68-4.16-1.27,0-1.92,1.19-1.93,2.84-.01,2.07,1.05,4.15,2.71,4.15,1.25,0,1.89-1.19,1.9-2.83Z" fill="#e08333"/>
        <path d="M509.69,457.24c0-.86-.53-1.39-1.32-1.39-.54,0-1.08.23-1.52.71l-.08-.09c.57-.68,1.25-1.16,2.17-1.16s1.66.61,1.67,1.66c.01,1.95-2.4,3.83-3.66,4.95h2.36c1.02,0,1.24-.2,1.43-.76h.1s-.16,1.46-.16,1.46h-4.54v-.14c1.43-1.37,3.54-3.31,3.54-5.24Z" fill="#e08333"/>
        <path d="M513.79,460.19c.55-1.21,1.41-2.74,2.15-4.11l-2.38-.03c-.87-.01-1.03.06-1.3.75h-.09s.21-1.41.21-1.41h4.08v.08c-1.03,1.82-1.82,3.9-2.07,4.79-.26.93-.32,1.79-.22,2.37h-1.06c0-.67.26-1.51.68-2.44Z" fill="#e08333"/>
      </g>
      <g>
        <path d="M398.25,456.56h3.27v.55h-2.69v1.87h2.69v.55h-2.69v1.88h2.69v.55h-3.27v-5.39Z" fill="#654a3b"/>
        <path d="M403.49,456.56h.64l3.17,4.47v-4.47h.58v5.39h-.61l-3.2-4.51v4.51h-.58v-5.39Z" fill="#654a3b"/>
        <path d="M411.37,457.09h-1.62v-.53h3.82v.53h-1.62v4.86h-.58v-4.86Z" fill="#654a3b"/>
        <path d="M415.43,456.56h1.65c1.06,0,1.83.76,1.83,1.71,0,.76-.49,1.45-1.32,1.64l1.37,2.04h-.67l-1.62-2.47h.37c.81,0,1.31-.61,1.31-1.21,0-.68-.49-1.18-1.3-1.18h-1.03v4.86h-.58v-5.39Z" fill="#654a3b"/>
        <path d="M420.82,456.56h3.27v.55h-2.69v1.87h2.69v.55h-2.69v1.88h2.69v.55h-3.27v-5.39Z" fill="#654a3b"/>
        <path d="M425.93,459.25c0-1.53,1.18-2.77,2.82-2.77,1.04,0,1.92.55,2.39,1.4l-.5.29c-.36-.69-1.04-1.14-1.89-1.14-1.35,0-2.23,1-2.23,2.22s.92,2.22,2.2,2.22,1.99-.8,2.12-1.85h-2.16v-.55h2.76v.16c0,1.48-.97,2.78-2.72,2.78-1.57,0-2.79-1.24-2.79-2.77Z" fill="#654a3b"/>
        <path d="M434.83,456.56h.62l2.04,5.39h-.6l-.52-1.37h-2.46l-.52,1.37h-.61l2.04-5.39ZM434.12,460.04h2.04l-1.03-2.7-1.02,2.7Z" fill="#654a3b"/>
        <path d="M442.12,456.56h3.27v.55h-2.69v1.87h2.69v.55h-2.69v1.88h2.69v.55h-3.27v-5.39Z" fill="#654a3b"/>
        <path d="M447.36,456.56h.64l3.17,4.47v-4.47h.58v5.39h-.61l-3.2-4.51v4.51h-.58v-5.39Z" fill="#654a3b"/>
      </g>
    </g>
    <g transform="translate(0 15)">
    <path d="M99.037,425.048c-.022-.14.073-.271.213-.293.14-.022.271.073.294.213.023.143.041.284.052.421.011.141.017.282.017.423,0,1.452-.589,2.767-1.541,3.719-.952.952-2.267,1.541-3.719,1.541s-2.767-.589-3.719-1.541c-.952-.952-1.541-2.267-1.541-3.719s.589-2.767,1.541-3.719c.952-.952,2.267-1.541,3.719-1.541.563,0,1.107.089,1.618.255.53.171,1.021.423,1.461.741.115.084.141.244.057.359-.083.115-.244.141-.359.057-.398-.288-.841-.515-1.316-.669-.459-.148-.95-.229-1.461-.229-1.31,0-2.497.531-3.355,1.39-.858.858-1.39,2.045-1.39,3.355s.531,2.497,1.39,3.355c.858.859,2.045,1.39,3.355,1.39s2.497-.531,3.355-1.39c.859-.858,1.39-2.045,1.39-3.355,0-.131-.005-.258-.015-.383-.011-.133-.026-.26-.045-.381h0ZM91.719,425.324c-.087-.112-.067-.273.044-.36s.273-.067.36.044l1.989,2.55,4.501-5.355c.091-.108.253-.122.361-.031s.122.253.031.361l-4.697,5.588c-.013.017-.029.033-.046.047-.112.087-.273.067-.36-.044l-2.184-2.799h0Z" fill="#e08333"/>
    <path d="M99.037,446.542c-.022-.14.073-.271.213-.293.14-.022.271.073.294.213.023.143.041.284.052.421.011.141.017.282.017.423,0,1.452-.589,2.767-1.541,3.719-.952.952-2.267,1.541-3.719,1.541s-2.767-.589-3.719-1.541c-.952-.952-1.541-2.267-1.541-3.719s.589-2.767,1.541-3.719c.952-.952,2.267-1.541,3.719-1.541.563,0,1.107.089,1.618.255.53.171,1.021.423,1.461.741.115.084.141.244.057.359-.083.115-.244.141-.359.057-.398-.288-.841-.515-1.316-.669-.459-.148-.95-.229-1.461-.229-1.31,0-2.497.531-3.355,1.39-.858.858-1.39,2.045-1.39,3.355s.531,2.497,1.39,3.355c.858.859,2.045,1.39,3.355,1.39s2.497-.531,3.355-1.39c.859-.858,1.39-2.045,1.39-3.355,0-.131-.005-.258-.015-.383-.011-.133-.026-.26-.045-.381h0ZM91.719,446.819c-.087-.112-.067-.273.044-.36s.273-.067.36.044l1.989,2.55,4.501-5.355c.091-.108.253-.122.361-.031s.122.253.031.361l-4.697,5.588c-.013.017-.029.033-.046.047-.112.087-.273.067-.36-.044l-2.184-2.799h0Z" fill="#e08333"/>
    <path d="M214.905,425.048c-.022-.14.073-.271.213-.293.14-.022.271.073.294.213.023.143.041.284.052.421.011.141.017.282.017.423,0,1.452-.589,2.767-1.541,3.719-.952.952-2.267,1.541-3.719,1.541s-2.767-.589-3.719-1.541c-.952-.952-1.541-2.267-1.541-3.719s.589-2.767,1.541-3.719c.952-.952,2.267-1.541,3.719-1.541.563,0,1.107.089,1.618.255.53.171,1.021.423,1.461.741.115.084.141.244.057.359-.083.115-.244.141-.359.057-.398-.288-.841-.515-1.316-.669-.459-.148-.95-.229-1.461-.229-1.31,0-2.497.531-3.355,1.39-.858.858-1.39,2.045-1.39,3.355s.531,2.497,1.39,3.355c.858.859,2.045,1.39,3.355,1.39s2.497-.531,3.355-1.39c.859-.858,1.39-2.045,1.39-3.355,0-.131-.005-.258-.015-.383-.011-.133-.026-.26-.045-.381h0ZM207.587,425.324c-.087-.112-.067-.273.044-.36s.273-.067.36.044l1.989,2.55,4.501-5.355c.091-.108.253-.122.361-.031s.122.253.031.361l-4.697,5.588c-.013.017-.029.033-.046.047-.112.087-.273.067-.36-.044l-2.184-2.799h0Z" fill="#e08333"/>
    <path d="M214.905,446.542c-.022-.14.073-.271.213-.293.14-.022.271.073.294.213.023.143.041.284.052.421.011.141.017.282.017.423,0,1.452-.589,2.767-1.541,3.719-.952.952-2.267,1.541-3.719,1.541s-2.767-.589-3.719-1.541c-.952-.952-1.541-2.267-1.541-3.719s.589-2.767,1.541-3.719c.952-.952,2.267-1.541,3.719-1.541.563,0,1.107.089,1.618.255.53.171,1.021.423,1.461.741.115.084.141.244.057.359-.083.115-.244.141-.359.057-.398-.288-.841-.515-1.316-.669-.459-.148-.95-.229-1.461-.229-1.31,0-2.497.531-3.355,1.39-.858.858-1.39,2.045-1.39,3.355s.531,2.497,1.39,3.355c.858.859,2.045,1.39,3.355,1.39s2.497-.531,3.355-1.39c.859-.858,1.39-2.045,1.39-3.355,0-.131-.005-.258-.015-.383-.011-.133-.026-.26-.045-.381h0ZM207.587,446.819c-.087-.112-.067-.273.044-.36s.273-.067.36.044l1.989,2.55,4.501-5.355c.091-.108.253-.122.361-.031s.122.253.031.361l-4.697,5.588c-.013.017-.029.033-.046.047-.112.087-.273.067-.36-.044l-2.184-2.799h0Z" fill="#e08333"/>
    </g>
    <rect x="-2.83" y="715.76" width="617.67" height="80.35" fill="#ac8e78"/>
    <g>
      <g>
        <g>
          <path d="M246.28,748.65h-3.11l-6.62-7.2v7.2h-2.34v-16.35h2.34v7.2l6.23-7.2h3.11l-7.2,8,7.59,8.35Z" fill="#fff"/>
          <path d="M247.34,732.3h2.34v16.35h-2.34v-16.35ZM251.04,741.64v-2.34h5.02v2.34h-5.02ZM257.43,732.3h2.34v16.35h-2.34v-16.35Z" fill="#fff"/>
          <path d="M276.82,748.65h-2.53l-1.58-3.5h0l-3.67-8.08-3.67,8.08h0l-1.58,3.5h-2.53l7.79-16.74,7.79,16.74Z" fill="#fff"/>
          <path d="M299.19,748.65h-2.53l-1.58-3.5h0l-3.67-8.08-3.67,8.08h0l-1.58,3.5h-2.53l7.79-16.74,7.79,16.74Z" fill="#fff"/>
          <g>
            <polygon points="284.14 732.26 281.09 738.97 282.5 741.3 286.88 732.26 284.14 732.26" fill="#fff"/>
            <polygon points="276.27 732.22 273.67 732.22 279.05 743.78 279.05 743.78 279.05 748.65 281.38 748.65 281.38 742.03 276.27 732.22 276.27 732.22" fill="#fff"/>
          </g>
          <circle cx="291.4" cy="745.22" r="1.87" fill="#fff"/>
        </g>
        <g>
          <path d="M304.35,740.01h2.66c1.82,0,3.03,1.23,3.03,2.79,0,1.14-.63,2.22-1.85,2.59l2.04,3.18h-1.47l-2.58-4.08h.69c1.28,0,1.89-.9,1.89-1.69,0-.96-.62-1.61-1.88-1.61h-1.26v7.38h-1.28v-8.57Z" fill="#fff"/>
          <path d="M312.94,745.69v-5.68h1.28v5.76c0,.95.74,1.73,1.71,1.73s1.75-.77,1.75-1.73v-5.76h1.27v5.68c0,1.84-1.28,3-3,3s-3-1.16-3-3Z" fill="#fff"/>
          <path d="M324.19,741.21h-2.43v-1.2h6.13v1.2h-2.43v7.37h-1.27v-7.37Z" fill="#fff"/>
          <path d="M343.76,745.69v-5.68h1.28v5.76c0,.95.74,1.73,1.71,1.73s1.75-.77,1.75-1.73v-5.76h1.27v5.68c0,1.84-1.28,3-3,3s-3-1.16-3-3Z" fill="#fff"/>
          <path d="M352.82,740.01h1.44l4.34,6.48v-6.48h1.27v8.57h-1.35l-4.42-6.58v6.58h-1.28v-8.57Z" fill="#fff"/>
          <path d="M362.7,744.3c0-2.43,1.96-4.4,4.39-4.4s4.4,1.97,4.4,4.4-1.96,4.4-4.4,4.4-4.39-1.97-4.39-4.4ZM370.21,744.3c0-1.74-1.36-3.17-3.12-3.17s-3.11,1.43-3.11,3.17,1.36,3.16,3.11,3.16,3.12-1.42,3.12-3.16Z" fill="#fff"/>
          <polygon points="333.28 740.01 331.96 740.01 328.82 748.58 330.15 748.58 330.81 746.75 331.26 745.53 332.62 741.77 333.98 745.53 334.43 746.75 335.09 748.58 336.42 748.58 333.28 740.01" fill="#fff"/>
        </g>
      </g>
      <g>
        <g>
          <path d="M162.99,768.06h1.06v-1.06h.46v1.06h1.06v.46h-1.06v1.07h-.46v-1.07h-1.06v-.46Z" fill="#fff"/>
          <path d="M166.31,769.99l.51-.33c.22.41.59.73,1.18.73.68,0,1.16-.48,1.16-1.19,0-.78-.59-1.2-1.19-1.2-.48,0-.84.21-1.07.52l-.55-.18.39-2.62h2.61v.52h-2.15l-.24,1.59c.25-.2.59-.34,1.01-.34.89,0,1.74.54,1.74,1.71,0,1.01-.71,1.7-1.71,1.7-.77,0-1.38-.37-1.69-.92Z" fill="#fff"/>
          <path d="M170.48,769.29v-1.97c0-.96.65-1.66,1.62-1.66s1.62.73,1.62,1.66v1.97c0,1-.59,1.61-1.62,1.61s-1.62-.64-1.62-1.61ZM173.18,769.29v-1.97c0-.74-.37-1.17-1.07-1.17s-1.08.47-1.08,1.17v1.96c0,.7.35,1.13,1.07,1.13s1.08-.44,1.08-1.12Z" fill="#fff"/>
          <path d="M174.49,769.22c0-.43.15-.85.37-1.17l1.51-2.31h.66l-1.2,1.84c.15-.03.3-.06.47-.06.93,0,1.65.73,1.65,1.7s-.76,1.69-1.73,1.69-1.73-.75-1.73-1.69ZM177.41,769.22c0-.67-.55-1.2-1.2-1.2s-1.19.53-1.19,1.2.53,1.2,1.19,1.2,1.2-.54,1.2-1.2Z" fill="#fff"/>
          <path d="M182.56,769.66h-2.24v-.5l2.24-3.43h.55v3.43h.73v.5h-.73v1.18h-.55v-1.18ZM182.56,769.17v-2.52l-1.65,2.52h1.65Z" fill="#fff"/>
          <path d="M184.57,769.29v-1.97c0-.96.65-1.66,1.62-1.66s1.62.73,1.62,1.66v1.97c0,1-.59,1.61-1.62,1.61s-1.62-.64-1.62-1.61ZM187.27,769.29v-1.97c0-.74-.37-1.17-1.07-1.17s-1.08.47-1.08,1.17v1.96c0,.7.35,1.13,1.07,1.13s1.08-.44,1.08-1.12Z" fill="#fff"/>
          <path d="M188.68,769.29v-1.97c0-.96.65-1.66,1.62-1.66s1.62.73,1.62,1.66v1.97c0,1-.59,1.61-1.62,1.61s-1.62-.64-1.62-1.61ZM191.38,769.29v-1.97c0-.74-.37-1.17-1.07-1.17s-1.08.47-1.08,1.17v1.96c0,.7.35,1.13,1.07,1.13s1.08-.44,1.08-1.12Z" fill="#fff"/>
          <path d="M192.66,770.31h1.45v-3.5c-.15.22-.52.33-.83.33h-.08v-.57h.03c.67,0,.9-.48.9-.84h.52v4.58h1.52v.52h-3.52v-.52Z" fill="#fff"/>
          <path d="M200.76,769.66h-2.24v-.5l2.24-3.43h.55v3.43h.73v.5h-.73v1.18h-.55v-1.18ZM200.76,769.17v-2.52l-1.65,2.52h1.65Z" fill="#fff"/>
          <path d="M202.77,769.29v-1.97c0-.96.65-1.66,1.62-1.66s1.62.73,1.62,1.66v1.97c0,1-.59,1.61-1.62,1.61s-1.62-.64-1.62-1.61ZM205.47,769.29v-1.97c0-.74-.37-1.17-1.07-1.17s-1.08.47-1.08,1.17v1.96c0,.7.35,1.13,1.07,1.13s1.08-.44,1.08-1.12Z" fill="#fff"/>
          <path d="M209.65,766.26h-2.91v-.52h3.52v.48l-2.13,4.63h-.59l2.1-4.58Z" fill="#fff"/>
          <path d="M211,769.29v-1.97c0-.96.65-1.66,1.62-1.66s1.62.73,1.62,1.66v1.97c0,1-.59,1.61-1.62,1.61s-1.62-.64-1.62-1.61ZM213.7,769.29v-1.97c0-.74-.37-1.17-1.07-1.17s-1.08.47-1.08,1.17v1.96c0,.7.35,1.13,1.07,1.13s1.08-.44,1.08-1.12Z" fill="#fff"/>
          <path d="M162.62,771.71v-.35h52.06v.35h-52.06Z" fill="#fff"/>
        </g>
        <path d="M222.68,765.73h.54v6.71h-.54v-6.71Z" fill="#fff"/>
        <path d="M277.93,765.73h.55v6.71h-.55v-6.71Z" fill="#fff"/>
        <path d="M341.92,765.73h.55v6.71h-.55v-6.71Z" fill="#fff"/>
        <g>
          <path d="M242.86,769.15l-.71.72v.97h-.53v-5.1h.53v3.51l1.86-1.9h.68l-1.45,1.48,1.45,2.01h-.63l-1.22-1.69Z" fill="#fff"/>
          <path d="M245.38,765.74h.53v2.12c.24-.35.66-.58,1.19-.58.94,0,1.52.62,1.52,1.62v1.94h-.55v-1.94c0-.68-.35-1.13-1.05-1.13-.64,0-1.11.5-1.11,1.14v1.94h-.54v-5.1Z" fill="#fff"/>
          <path d="M249.41,769.09c0-1,.75-1.82,1.79-1.82.45,0,.99.23,1.29.64v-.57h.54v3.5h-.54v-.57c-.3.42-.84.64-1.29.64-1.03,0-1.79-.82-1.79-1.82ZM252.54,769.09c0-.73-.56-1.33-1.31-1.33s-1.27.59-1.27,1.33.56,1.33,1.27,1.33c.75,0,1.31-.59,1.31-1.33Z" fill="#fff"/>
          <path d="M255.22,770.64l-1.51-3.29h.59l1.2,2.67,1.11-2.67h.59l-2.2,5.11h-.57l.79-1.82Z" fill="#fff"/>
          <path d="M257.54,769.09c0-1,.75-1.82,1.79-1.82.45,0,.99.23,1.29.64v-.57h.54v3.5h-.54v-.57c-.3.42-.84.64-1.29.64-1.03,0-1.79-.82-1.79-1.82ZM260.67,769.09c0-.73-.56-1.33-1.31-1.33s-1.27.59-1.27,1.33.56,1.33,1.27,1.33c.75,0,1.31-.59,1.31-1.33Z" fill="#fff"/>
          <path d="M262.06,769.88h.55v.96h-.55v-.96Z" fill="#fff"/>
          <path d="M263.38,769.09c0-1.05.8-1.82,1.83-1.82.76,0,1.38.43,1.64,1.04l-.49.21c-.22-.48-.61-.76-1.15-.76-.73,0-1.28.59-1.28,1.33s.55,1.33,1.31,1.33c.58,0,.96-.35,1.15-.81l.5.21c-.28.64-.83,1.09-1.66,1.09-1.07,0-1.84-.81-1.84-1.82Z" fill="#fff"/>
          <path d="M267.62,767.34h.54v.5c.19-.32.52-.5.97-.5h.43v.5h-.43c-.71,0-.97.37-.97,1.18v1.81h-.55v-3.5Z" fill="#fff"/>
          <path d="M241.15,771.71v-.35h28.72v.35h-28.72Z" fill="#fff"/>
        </g>
        <g>
          <path d="M295.79,769.15l-.71.72v.97h-.53v-5.11h.53v3.51l1.86-1.9h.69l-1.45,1.48,1.45,2.01h-.63l-1.22-1.69Z" fill="#fff"/>
          <path d="M298.31,765.73h.53v2.12c.24-.35.66-.58,1.19-.58.94,0,1.52.61,1.52,1.62v1.94h-.55v-1.94c0-.68-.35-1.13-1.05-1.13-.64,0-1.11.5-1.11,1.14v1.94h-.54v-5.11Z" fill="#fff"/>
          <path d="M302.34,769.09c0-1,.75-1.82,1.79-1.82.45,0,.99.23,1.29.64v-.57h.54v3.5h-.54v-.57c-.3.42-.84.64-1.29.64-1.03,0-1.79-.82-1.79-1.82ZM305.47,769.09c0-.73-.56-1.33-1.31-1.33s-1.27.59-1.27,1.33.56,1.33,1.27,1.33c.75,0,1.31-.59,1.31-1.33Z" fill="#fff"/>
          <path d="M308.15,770.64l-1.51-3.29h.59l1.2,2.67,1.11-2.67h.59l-2.2,5.11h-.57l.79-1.82Z" fill="#fff"/>
          <path d="M310.47,769.09c0-1,.75-1.82,1.79-1.82.45,0,.99.23,1.29.64v-.57h.54v3.5h-.54v-.57c-.3.42-.84.64-1.29.64-1.03,0-1.79-.82-1.79-1.82ZM313.6,769.09c0-.73-.56-1.33-1.31-1.33s-1.27.59-1.27,1.33.56,1.33,1.27,1.33c.75,0,1.31-.59,1.31-1.33Z" fill="#fff"/>
          <path d="M315.03,765.73h.55v5.11h-.55v-5.11Z" fill="#fff"/>
          <path d="M316.39,769.09c0-1,.75-1.82,1.79-1.82.45,0,.99.23,1.29.64v-.57h.54v3.5h-.54v-.57c-.3.42-.84.64-1.29.64-1.03,0-1.79-.82-1.79-1.82ZM319.52,769.09c0-.73-.56-1.33-1.31-1.33s-1.27.59-1.27,1.33.56,1.33,1.27,1.33c.75,0,1.31-.59,1.31-1.33Z" fill="#fff"/>
          <path d="M320.71,767.34h.6v-.82l.55-.3v1.13h.82v.49h-.82v1.67c0,.71.13.83.82.83v.51h-.08c-1.02,0-1.29-.29-1.29-1.34v-1.67h-.6v-.49Z" fill="#fff"/>
          <path d="M323.21,769.09c0-1,.75-1.82,1.79-1.82.45,0,.99.23,1.29.64v-.57h.54v3.5h-.54v-.57c-.3.42-.84.64-1.29.64-1.03,0-1.79-.82-1.79-1.82ZM326.34,769.09c0-.73-.56-1.33-1.31-1.33s-1.27.59-1.27,1.33.56,1.33,1.27,1.33c.75,0,1.31-.59,1.31-1.33Z" fill="#fff"/>
          <path d="M327.81,767.34h.53v.47c.23-.33.62-.54,1.12-.54.63,0,1.05.29,1.24.71.22-.43.68-.71,1.27-.71,1.01,0,1.56.61,1.56,1.51v2.06h-.55v-2.09c0-.58-.39-.99-1.02-.99-.57,0-1.03.39-1.03,1.05v2.04h-.54v-2.15c0-.56-.39-.93-.98-.93s-1.07.41-1.07,1.11v1.97h-.54v-3.5Z" fill="#fff"/>
          <path d="M294.08,771.71v-.35h39.91v.35h-39.91Z" fill="#fff"/>
        </g>
        <g>
          <path d="M361.46,769.15l-.71.72v.97h-.53v-5.1h.53v3.51l1.86-1.9h.68l-1.45,1.48,1.45,2.01h-.63l-1.22-1.69Z" fill="#fff"/>
          <path d="M363.98,765.73h.53v2.12c.25-.35.66-.58,1.19-.58.94,0,1.52.62,1.52,1.62v1.94h-.55v-1.94c0-.68-.35-1.13-1.05-1.13-.64,0-1.11.5-1.11,1.14v1.94h-.54v-5.1Z" fill="#fff"/>
          <path d="M368.01,769.09c0-1,.75-1.82,1.79-1.82.45,0,.99.23,1.29.64v-.57h.54v3.5h-.54v-.57c-.3.42-.84.64-1.29.64-1.03,0-1.79-.82-1.79-1.82ZM371.14,769.09c0-.73-.56-1.33-1.31-1.33s-1.27.59-1.27,1.33.56,1.33,1.27,1.33c.75,0,1.31-.59,1.31-1.33Z" fill="#fff"/>
          <path d="M373.82,770.64l-1.51-3.29h.59l1.2,2.67,1.11-2.67h.59l-2.2,5.11h-.57l.79-1.82Z" fill="#fff"/>
          <path d="M376.14,769.09c0-1,.75-1.82,1.79-1.82.45,0,.99.23,1.29.64v-.57h.54v3.5h-.54v-.57c-.3.42-.84.64-1.29.64-1.03,0-1.79-.82-1.79-1.82ZM379.27,769.09c0-.73-.56-1.33-1.31-1.33s-1.27.59-1.27,1.33.56,1.33,1.27,1.33c.75,0,1.31-.59,1.31-1.33Z" fill="#fff"/>
          <path d="M380.66,769.88h.55v.96h-.55v-.96Z" fill="#fff"/>
          <path d="M381.98,769.09c0-1.05.8-1.82,1.83-1.82.76,0,1.38.43,1.64,1.04l-.49.21c-.22-.48-.61-.76-1.15-.76-.73,0-1.28.59-1.28,1.33s.55,1.33,1.31,1.33c.58,0,.96-.35,1.15-.81l.5.21c-.28.64-.83,1.09-1.66,1.09-1.07,0-1.84-.81-1.84-1.82Z" fill="#fff"/>
          <path d="M386.22,767.34h.54v.5c.19-.32.52-.5.97-.5h.43v.5h-.43c-.71,0-.97.37-.97,1.18v1.81h-.54v-3.5Z" fill="#fff"/>
          <path d="M359.75,771.71v-.35h28.72v.35h-28.72Z" fill="#fff"/>
        </g>
        <g clip-path="url(#clippath-1)">
          <path d="M235.5,766.66c-.17,0-.3.13-.3.3s.13.3.3.3.3-.13.3-.3-.13-.3-.3-.3" fill="#fff"/>
          <path d="M234.17,767.05c-.69,0-1.26.56-1.26,1.26s.56,1.26,1.26,1.26,1.26-.56,1.26-1.26-.56-1.26-1.26-1.26M234.17,769.11c-.44,0-.8-.36-.8-.8s.36-.8.8-.8.8.36.8.8-.36.8-.8.8" fill="#fff"/>
          <path d="M235.17,770.85h-2.03c-.84,0-1.53-.69-1.53-1.53v-2.03c0-.84.69-1.53,1.53-1.53h2.03c.84,0,1.53.69,1.53,1.53v2.03c0,.84-.69,1.53-1.53,1.53M233.14,766.23c-.58,0-1.05.47-1.05,1.05v2.03c0,.58.47,1.05,1.05,1.05h2.03c.58,0,1.05-.47,1.05-1.05v-2.03c0-.58-.47-1.05-1.05-1.05h-2.03Z" fill="#fff"/>
        </g>
        <g clip-path="url(#clippath-2)">
          <path d="M288.69,770.81v-2.24h.75l.14-.93h-.89v-.6c0-.25.12-.5.52-.5h.4v-.79s-.37-.06-.72-.06c-.73,0-1.21.44-1.21,1.25v.71h-.81v.93h.81v2.24h1Z" fill="#fff"/>
        </g>
        <g clip-path="url(#clippath-3)">
          <path d="M355.3,767.78h0s-.09,0-.13,0c-.47,0-.91-.24-1.17-.63v2.15c0,.88-.71,1.59-1.59,1.59s-1.59-.71-1.59-1.59.71-1.59,1.59-1.59c.03,0,.07,0,.1,0v.78s-.06,0-.1,0c-.45,0-.81.36-.81.81s.36.81.81.81.84-.35.84-.8v-3.66h.76c.07.67.61,1.2,1.29,1.25v.87Z" fill="#fff"/>
        </g>
        <path d="M396.53,765.73h.55v6.71h-.55v-6.71Z" fill="#fff"/>
        <g>
          <path d="M416.08,769.15l-.71.72v.97h-.53v-5.1h.53v3.51l1.86-1.9h.68l-1.45,1.48,1.45,2.01h-.63l-1.22-1.69Z" fill="#fff"/>
          <path d="M418.59,765.73h.53v2.12c.25-.35.66-.58,1.19-.58.94,0,1.52.62,1.52,1.62v1.94h-.55v-1.94c0-.68-.35-1.13-1.05-1.13-.64,0-1.11.5-1.11,1.14v1.94h-.54v-5.1Z" fill="#fff"/>
          <path d="M422.63,769.09c0-1,.75-1.82,1.79-1.82.45,0,.99.23,1.29.64v-.57h.54v3.5h-.54v-.57c-.3.42-.84.64-1.29.64-1.03,0-1.79-.82-1.79-1.82ZM425.75,769.09c0-.73-.56-1.33-1.31-1.33s-1.27.59-1.27,1.33.56,1.33,1.27,1.33c.75,0,1.31-.59,1.31-1.33Z" fill="#fff"/>
          <path d="M428.43,770.64l-1.51-3.29h.59l1.2,2.67,1.11-2.67h.59l-2.2,5.11h-.57l.79-1.82Z" fill="#fff"/>
          <path d="M430.75,769.09c0-1,.75-1.82,1.79-1.82.45,0,.99.23,1.29.64v-.57h.54v3.5h-.54v-.57c-.3.42-.84.64-1.29.64-1.03,0-1.79-.82-1.79-1.82ZM433.88,769.09c0-.73-.56-1.33-1.31-1.33s-1.27.59-1.27,1.33.56,1.33,1.27,1.33c.75,0,1.31-.59,1.31-1.33Z" fill="#fff"/>
          <path d="M435.27,769.88h.55v.96h-.55v-.96Z" fill="#fff"/>
          <path d="M436.59,769.09c0-1.05.8-1.82,1.83-1.82.76,0,1.38.43,1.64,1.04l-.49.21c-.22-.48-.61-.76-1.15-.76-.73,0-1.28.59-1.28,1.33s.55,1.33,1.31,1.33c.58,0,.96-.35,1.15-.81l.5.21c-.28.64-.83,1.09-1.66,1.09-1.07,0-1.84-.81-1.84-1.82Z" fill="#fff"/>
          <path d="M440.83,767.34h.54v.5c.19-.32.52-.5.97-.5h.43v.5h-.43c-.71,0-.97.37-.97,1.18v1.81h-.54v-3.5Z" fill="#fff"/>
          <path d="M414.36,771.71v-.35h28.72v.35h-28.72Z" fill="#fff"/>
        </g>
        <g>
          <path d="M408.03,771.59c-1.55,0-2.81-1.26-2.81-2.81s1.26-2.81,2.81-2.81,2.81,1.26,2.81,2.81-1.26,2.81-2.81,2.81ZM408.03,766.38c-1.32,0-2.39,1.07-2.39,2.39s1.07,2.39,2.39,2.39,2.39-1.07,2.39-2.39-1.07-2.39-2.39-2.39Z" fill="#fff"/>
          <g>
            <path d="M408.03,771.59c-.76,0-1.34-1.21-1.34-2.81s.57-2.81,1.34-2.81,1.34,1.21,1.34,2.81-.57,2.81-1.34,2.81ZM408.03,766.38c-.43,0-.91,1.02-.91,2.39s.48,2.39.91,2.39.91-1.02.91-2.39-.48-2.39-.91-2.39Z" fill="#fff"/>
            <path d="M410.56,768.98h-5.13c-.12,0-.21-.09-.21-.21s.09-.21.21-.21h5.13c.12,0,.21.09.21.21s-.09.21-.21.21Z" fill="#fff"/>
          </g>
        </g>
      </g>
    </g>
  </g>
</svg>