<?xml version="1.0" encoding="UTF-8"?>
<svg id="Layer_1" data-name="Layer 1" xmlns="http://www.w3.org/2000/svg" width="8.5in" height="11in" xmlns:xlink="http://www.w3.org/1999/xlink" viewBox="0 0 612 792">
  <defs>
    <clipPath id="clippath">
      <rect x="229.96" y="765.75" width="5.1" height="5.1" fill="none"/>
    </clipPath>
    <clipPath id="clippath-1">
      <rect x="285.22" y="765.69" width="2.74" height="5.12" fill="none"/>
    </clipPath>
    <clipPath id="clippath-2">
      <rect x="349.17" y="765.66" width="4.48" height="5.24" fill="none"/>
    </clipPath>
  </defs>
  <text transform="translate(55.04 84.54)" fill="#ee7e0c" font-family="TheSeasons-Bold, &apos;The Seasons&apos;" font-size="15" font-weight="700"><tspan x="0" y="0" letter-spacing=".1em">DE </tspan><tspan x="27.39" y="0" letter-spacing="0em">P</tspan><tspan x="35.92" y="0" letter-spacing=".05em">A</tspan><tspan x="46.35" y="0" letter-spacing=".1em">G</tspan><tspan x="59.16" y="0" letter-spacing=".08em">O</tspan><tspan x="72.66" y="0" letter-spacing=".1em">S</tspan></text>
  <text transform="translate(55.04 66.97)" fill="#654a3b" font-family="SharpSansNo1-Semibold, &apos;RVMSC P+ Sharp Sans No 1&apos;" font-size="12" font-weight="600" letter-spacing=".1em"><tspan x="0" y="0">CALENDARIO</tspan></text>
  <rect x="33.18" y="476.62" width="545.64" height="200.14" rx="20.2" ry="20.2" fill="#faf4f0" stroke="#ee7e0c" stroke-miterlimit="10" stroke-width="1.06"/>
  <text transform="translate(55.04 527.1)" fill="#ee7e0c" font-family="TheSeasons-Bold, &apos;The Seasons&apos;" font-size="15" font-weight="700"><tspan x="0" y="0" letter-spacing=".1em">BAN</tspan><tspan x="33.55" y="0" letter-spacing=".06em">C</tspan><tspan x="45.7" y="0" letter-spacing=".1em">ARIO</tspan></text>
  <text transform="translate(55.04 509.53)" fill="#654a3b" font-family="SharpSansNo1-Semibold, &apos;RVMSC P+ Sharp Sans No 1&apos;" font-size="12" font-weight="600" letter-spacing=".1em"><tspan x="0" y="0">FINANCIAMIENTO</tspan></text>
  <text transform="translate(229.96 509.28)" fill="#654a3b" font-family="SharpSansNo1-Book, &apos;OINAM V+ Sharp Sans No 1&apos;" font-size="9" letter-spacing=".1em"><tspan x="0" y="0">Estimaciones orientativas, condiciones </tspan><tspan x="0" y="10.8">sujetas a aprobación bancaria</tspan></text>
  <text transform="translate(65.58 700.15)" fill="#654a3b" font-family="SharpSansNo1-Book, &apos;OINAM V+ Sharp Sans No 1&apos;" font-size="9" letter-spacing=".1em"><tspan x="0" y="0">Este documento es una cotización informativa y no constituye un contrato de compra - venta</tspan></text>
  <text transform="translate(439.05 560.02)" fill="#ee7e0c" font-family="TheSeasons-Regular, &apos;The Seasons&apos;" font-size="9" letter-spacing=".1em"><tspan x="0" y="0">7.5%</tspan></text>
  <text transform="translate(55.04 560.7)" fill="#654a3b" font-family="SharpSansNo1-Medium, &apos;Sharp Sans No1 Medium&apos;" font-size="10" font-weight="500"><tspan x="0" y="0" letter-spacing="-.03em">T</tspan><tspan x="5.79" y="0" letter-spacing=".11em">A</tspan><tspan x="13.99" y="0" letter-spacing=".1em">S</tspan><tspan x="20.57" y="0" letter-spacing=".1em">A NOMINAL AN</tspan><tspan x="105.71" y="0" letter-spacing=".07em">U</tspan><tspan x="112.74" y="0" letter-spacing=".1em">AL (30 AÑ</tspan><tspan x="169.63" y="0" letter-spacing=".09em">O</tspan><tspan x="179.08" y="0" letter-spacing=".1em">S,</tspan><tspan x="188.73" y="0" letter-spacing=".1em">U</tspan><tspan x="196.11" y="0" letter-spacing=".1em">SD)</tspan></text>
  <text transform="translate(439.05 583.79)" fill="#ee7e0c" font-family="TheSeasons-Regular, &apos;The Seasons&apos;" font-size="9" letter-spacing=".1em"><tspan x="0" y="0">$2,530.46</tspan></text>
  <text transform="translate(55.04 584.25)" fill="#654a3b" font-family="SharpSansNo1-Medium, &apos;Sharp Sans No1 Medium&apos;" font-size="10" font-weight="500"><tspan x="0" y="0" letter-spacing=".1em">INGRESO NE</tspan><tspan x="69.7" y="0" letter-spacing=".03em">T</tspan><tspan x="76.04" y="0" letter-spacing=".1em">O </tspan><tspan x="89.04" y="0" letter-spacing=".03em">F</tspan><tspan x="94.79" y="0" letter-spacing=".1em">AMILIAR R</tspan><tspan x="150.99" y="0" letter-spacing=".1em">E</tspan><tspan x="157.79" y="0" letter-spacing=".1em">QUERI</tspan><tspan x="191.72" y="0" letter-spacing=".11em">D</tspan><tspan x="199.88" y="0" letter-spacing=".1em">O (REF.)</tspan></text>
  <text transform="translate(439.05 607.56)" fill="#ee7e0c" font-family="TheSeasons-Regular, &apos;The Seasons&apos;" font-size="9" letter-spacing=".1em"><tspan x="0" y="0">$1,138.71</tspan></text>
  <text transform="translate(55.04 608.24)" fill="#654a3b" font-family="SharpSansNo1-Medium, &apos;Sharp Sans No1 Medium&apos;" font-size="10" font-weight="500"><tspan x="0" y="0" letter-spacing=".1em">CU</tspan><tspan x="16.2" y="0" letter-spacing=".03em">O</tspan><tspan x="24.95" y="0" letter-spacing="-.03em">T</tspan><tspan x="30.74" y="0" letter-spacing=".1em">A </tspan><tspan x="42.29" y="0" letter-spacing=".09em">B</tspan><tspan x="49.51" y="0" letter-spacing=".1em">AN</tspan><tspan x="65.95" y="0" letter-spacing=".09em">C</tspan><tspan x="74.72" y="0" letter-spacing=".1em">ARIA AP</tspan><tspan x="119.89" y="0" letter-spacing=".1em">R</tspan><tspan x="126.88" y="0" letter-spacing=".06em">O</tspan><tspan x="135.98" y="0" letter-spacing=".1em">X. (30 AÑ</tspan><tspan x="189.06" y="0" letter-spacing=".1em">O</tspan><tspan x="198.51" y="0" letter-spacing=".1em">S)</tspan></text>
  <text transform="translate(439.05 631.33)" fill="#ee7e0c" font-family="TheSeasons-Regular, &apos;The Seasons&apos;" font-size="9" letter-spacing=".1em"><tspan x="0" y="0">$180.00</tspan></text>
  <text transform="translate(55.04 631.8)" fill="#654a3b" font-family="SharpSansNo1-Medium, &apos;Sharp Sans No1 Medium&apos;" font-size="10" font-weight="500"><tspan x="0" y="0" letter-spacing=".1em">CU</tspan><tspan x="16.2" y="0" letter-spacing=".03em">O</tspan><tspan x="24.95" y="0" letter-spacing="-.03em">T</tspan><tspan x="30.74" y="0" letter-spacing=".1em">A DE MANTENIMIEN</tspan><tspan x="140.39" y="0" letter-spacing=".03em">T</tspan><tspan x="146.73" y="0" letter-spacing=".1em">O AP</tspan><tspan x="174.96" y="0" letter-spacing=".1em">R</tspan><tspan x="181.95" y="0" letter-spacing=".06em">O</tspan><tspan x="191.05" y="0" letter-spacing=".1em">X.</tspan></text>
  <text transform="translate(439.05 655.11)" fill="#ee7e0c" font-family="TheSeasons-Regular, &apos;The Seasons&apos;" font-size="9" letter-spacing=".1em"><tspan x="0" y="0">$1,318.71</tspan></text>
  <text transform="translate(55.04 655.57)" fill="#654a3b" font-family="SharpSansNo1-Medium, &apos;Sharp Sans No1 Medium&apos;" font-size="10" font-weight="500"><tspan x="0" y="0" letter-spacing=".03em">TO</tspan><tspan x="15.09" y="0" letter-spacing="-.03em">T</tspan><tspan x="20.88" y="0" letter-spacing=".1em">AL </tspan><tspan x="38.76" y="0" letter-spacing=".07em">G</tspan><tspan x="47.86" y="0" letter-spacing=".11em">A</tspan><tspan x="56.06" y="0" letter-spacing=".07em">S</tspan><tspan x="62.44" y="0" letter-spacing=".03em">T</tspan><tspan x="68.78" y="0" letter-spacing=".1em">O</tspan><tspan x="78.23" y="0" letter-spacing=".1em">S MENS</tspan><tspan x="119.72" y="0" letter-spacing=".07em">U</tspan><tspan x="126.75" y="0" letter-spacing=".1em">ALES (REF.)</tspan></text>
  <rect x="-4.48" y="715.76" width="617.67" height="80.35" fill="#ac8e78"/>
  <g>
    <g>
      <g>
        <path d="M244.63,748.65h-3.11l-6.62-7.2v7.2h-2.34v-16.35h2.34v7.2l6.23-7.2h3.11l-7.2,8,7.59,8.35Z" fill="#fff"/>
        <path d="M245.69,732.3h2.34v16.35h-2.34v-16.35ZM249.39,741.64v-2.34h5.02v2.34h-5.02ZM255.78,732.3h2.34v16.35h-2.34v-16.35Z" fill="#fff"/>
        <path d="M275.17,748.65h-2.53l-1.58-3.5h0l-3.67-8.08-3.67,8.08h0l-1.58,3.5h-2.53l7.79-16.74,7.79,16.74Z" fill="#fff"/>
        <path d="M297.54,748.65h-2.53l-1.58-3.5h0l-3.67-8.08-3.67,8.08h0l-1.58,3.5h-2.53l7.79-16.74,7.79,16.74Z" fill="#fff"/>
        <g>
          <polygon points="282.49 732.26 279.44 738.97 280.85 741.3 285.23 732.26 282.49 732.26" fill="#fff"/>
          <polygon points="274.62 732.22 272.02 732.22 277.4 743.78 277.4 743.78 277.4 748.65 279.74 748.65 279.74 742.03 274.62 732.22 274.62 732.22" fill="#fff"/>
        </g>
        <circle cx="289.75" cy="745.22" r="1.87" fill="#fff"/>
      </g>
      <g>
        <path d="M302.7,740.01h2.66c1.82,0,3.03,1.23,3.03,2.79,0,1.14-.63,2.22-1.85,2.59l2.04,3.18h-1.47l-2.58-4.08h.69c1.28,0,1.89-.9,1.89-1.69,0-.96-.62-1.61-1.88-1.61h-1.26v7.38h-1.28v-8.57Z" fill="#fff"/>
        <path d="M311.29,745.69v-5.68h1.28v5.76c0,.95.74,1.73,1.71,1.73s1.75-.77,1.75-1.73v-5.76h1.27v5.68c0,1.84-1.28,3-3,3s-3-1.16-3-3Z" fill="#fff"/>
        <path d="M322.55,741.21h-2.43v-1.2h6.13v1.2h-2.43v7.37h-1.27v-7.37Z" fill="#fff"/>
        <path d="M342.11,745.69v-5.68h1.28v5.76c0,.95.74,1.73,1.71,1.73s1.75-.77,1.75-1.73v-5.76h1.27v5.68c0,1.84-1.28,3-3,3s-3-1.16-3-3Z" fill="#fff"/>
        <path d="M351.17,740.01h1.44l4.34,6.48v-6.48h1.27v8.57h-1.35l-4.42-6.58v6.58h-1.28v-8.57Z" fill="#fff"/>
        <path d="M361.05,744.3c0-2.43,1.96-4.4,4.39-4.4s4.4,1.97,4.4,4.4-1.96,4.4-4.4,4.4-4.39-1.97-4.39-4.4ZM368.56,744.3c0-1.74-1.36-3.17-3.12-3.17s-3.11,1.43-3.11,3.17,1.36,3.16,3.11,3.16,3.12-1.42,3.12-3.16Z" fill="#fff"/>
        <polygon points="331.63 740.01 330.31 740.01 327.17 748.58 328.5 748.58 329.16 746.75 329.61 745.53 330.97 741.77 332.33 745.53 332.78 746.75 333.45 748.58 334.77 748.58 331.63 740.01" fill="#fff"/>
      </g>
    </g>
    <g>
      <g>
        <path d="M161.34,768.06h1.06v-1.06h.46v1.06h1.06v.46h-1.06v1.07h-.46v-1.07h-1.06v-.46Z" fill="#fff"/>
        <path d="M164.66,769.99l.51-.33c.22.41.59.73,1.18.73.68,0,1.16-.48,1.16-1.19,0-.78-.59-1.2-1.19-1.2-.48,0-.84.21-1.07.52l-.55-.18.39-2.62h2.61v.52h-2.15l-.24,1.59c.25-.2.59-.34,1.01-.34.89,0,1.74.54,1.74,1.71,0,1.01-.71,1.7-1.71,1.7-.77,0-1.38-.37-1.69-.92Z" fill="#fff"/>
        <path d="M168.83,769.29v-1.97c0-.96.65-1.66,1.62-1.66s1.62.73,1.62,1.66v1.97c0,1-.59,1.61-1.62,1.61s-1.62-.64-1.62-1.61ZM171.53,769.29v-1.97c0-.74-.37-1.17-1.07-1.17s-1.08.47-1.08,1.17v1.96c0,.7.35,1.13,1.07,1.13s1.08-.44,1.08-1.12Z" fill="#fff"/>
        <path d="M172.84,769.22c0-.43.15-.85.37-1.17l1.51-2.31h.66l-1.2,1.84c.15-.03.3-.06.47-.06.93,0,1.65.73,1.65,1.7s-.76,1.69-1.73,1.69-1.73-.75-1.73-1.69ZM175.76,769.22c0-.67-.55-1.2-1.2-1.2s-1.19.53-1.19,1.2.53,1.2,1.19,1.2,1.2-.54,1.2-1.2Z" fill="#fff"/>
        <path d="M180.91,769.66h-2.24v-.5l2.24-3.43h.55v3.43h.73v.5h-.73v1.18h-.55v-1.18ZM180.91,769.17v-2.52l-1.65,2.52h1.65Z" fill="#fff"/>
        <path d="M182.92,769.29v-1.97c0-.96.65-1.66,1.62-1.66s1.62.73,1.62,1.66v1.97c0,1-.59,1.61-1.62,1.61s-1.62-.64-1.62-1.61ZM185.62,769.29v-1.97c0-.74-.37-1.17-1.07-1.17s-1.08.47-1.08,1.17v1.96c0,.7.35,1.13,1.07,1.13s1.08-.44,1.08-1.12Z" fill="#fff"/>
        <path d="M187.03,769.29v-1.97c0-.96.65-1.66,1.62-1.66s1.62.73,1.62,1.66v1.97c0,1-.59,1.61-1.62,1.61s-1.62-.64-1.62-1.61ZM189.73,769.29v-1.97c0-.74-.37-1.17-1.07-1.17s-1.08.47-1.08,1.17v1.96c0,.7.35,1.13,1.07,1.13s1.08-.44,1.08-1.12Z" fill="#fff"/>
        <path d="M191.01,770.31h1.45v-3.5c-.15.22-.52.33-.83.33h-.08v-.57h.03c.67,0,.9-.48.9-.84h.52v4.58h1.52v.52h-3.52v-.52Z" fill="#fff"/>
        <path d="M199.11,769.66h-2.24v-.5l2.24-3.43h.55v3.43h.73v.5h-.73v1.18h-.55v-1.18ZM199.11,769.17v-2.52l-1.65,2.52h1.65Z" fill="#fff"/>
        <path d="M201.12,769.29v-1.97c0-.96.65-1.66,1.62-1.66s1.62.73,1.62,1.66v1.97c0,1-.59,1.61-1.62,1.61s-1.62-.64-1.62-1.61ZM203.82,769.29v-1.97c0-.74-.37-1.17-1.07-1.17s-1.08.47-1.08,1.17v1.96c0,.7.35,1.13,1.07,1.13s1.08-.44,1.08-1.12Z" fill="#fff"/>
        <path d="M208.01,766.26h-2.91v-.52h3.52v.48l-2.13,4.63h-.59l2.1-4.58Z" fill="#fff"/>
        <path d="M209.35,769.29v-1.97c0-.96.65-1.66,1.62-1.66s1.62.73,1.62,1.66v1.97c0,1-.59,1.61-1.62,1.61s-1.62-.64-1.62-1.61ZM212.05,769.29v-1.97c0-.74-.37-1.17-1.07-1.17s-1.08.47-1.08,1.17v1.96c0,.7.35,1.13,1.07,1.13s1.08-.44,1.08-1.12Z" fill="#fff"/>
        <path d="M160.97,771.71v-.35h52.06v.35h-52.06Z" fill="#fff"/>
      </g>
      <path d="M221.03,765.73h.54v6.71h-.54v-6.71Z" fill="#fff"/>
      <path d="M276.28,765.73h.55v6.71h-.55v-6.71Z" fill="#fff"/>
      <path d="M340.27,765.73h.55v6.71h-.55v-6.71Z" fill="#fff"/>
      <g>
        <path d="M241.22,769.15l-.71.72v.97h-.53v-5.1h.53v3.51l1.86-1.9h.68l-1.45,1.48,1.45,2.01h-.63l-1.22-1.69Z" fill="#fff"/>
        <path d="M243.73,765.74h.53v2.12c.24-.35.66-.58,1.19-.58.94,0,1.52.62,1.52,1.62v1.94h-.55v-1.94c0-.68-.35-1.13-1.05-1.13-.64,0-1.11.5-1.11,1.14v1.94h-.54v-5.1Z" fill="#fff"/>
        <path d="M247.76,769.09c0-1,.75-1.82,1.79-1.82.45,0,.99.23,1.29.64v-.57h.54v3.5h-.54v-.57c-.3.42-.84.64-1.29.64-1.03,0-1.79-.82-1.79-1.82ZM250.89,769.09c0-.73-.56-1.33-1.31-1.33s-1.27.59-1.27,1.33.56,1.33,1.27,1.33c.75,0,1.31-.59,1.31-1.33Z" fill="#fff"/>
        <path d="M253.57,770.64l-1.51-3.29h.59l1.2,2.67,1.11-2.67h.59l-2.2,5.11h-.57l.79-1.82Z" fill="#fff"/>
        <path d="M255.89,769.09c0-1,.75-1.82,1.79-1.82.45,0,.99.23,1.29.64v-.57h.54v3.5h-.54v-.57c-.3.42-.84.64-1.29.64-1.03,0-1.79-.82-1.79-1.82ZM259.02,769.09c0-.73-.56-1.33-1.31-1.33s-1.27.59-1.27,1.33.56,1.33,1.27,1.33c.75,0,1.31-.59,1.31-1.33Z" fill="#fff"/>
        <path d="M260.41,769.88h.55v.96h-.55v-.96Z" fill="#fff"/>
        <path d="M261.73,769.09c0-1.05.8-1.82,1.83-1.82.76,0,1.38.43,1.64,1.04l-.49.21c-.22-.48-.61-.76-1.15-.76-.73,0-1.28.59-1.28,1.33s.55,1.33,1.31,1.33c.58,0,.96-.35,1.15-.81l.5.21c-.28.64-.83,1.09-1.66,1.09-1.07,0-1.84-.81-1.84-1.82Z" fill="#fff"/>
        <path d="M265.97,767.34h.54v.5c.19-.32.52-.5.97-.5h.43v.5h-.43c-.71,0-.97.37-.97,1.18v1.81h-.55v-3.5Z" fill="#fff"/>
        <path d="M239.5,771.71v-.35h28.72v.35h-28.72Z" fill="#fff"/>
      </g>
      <g>
        <path d="M294.15,769.15l-.71.72v.97h-.53v-5.11h.53v3.51l1.86-1.9h.69l-1.45,1.48,1.45,2.01h-.63l-1.22-1.69Z" fill="#fff"/>
        <path d="M296.66,765.73h.53v2.12c.24-.35.66-.58,1.19-.58.94,0,1.52.61,1.52,1.62v1.94h-.55v-1.94c0-.68-.35-1.13-1.05-1.13-.64,0-1.11.5-1.11,1.14v1.94h-.54v-5.11Z" fill="#fff"/>
        <path d="M300.69,769.09c0-1,.75-1.82,1.79-1.82.45,0,.99.23,1.29.64v-.57h.54v3.5h-.54v-.57c-.3.42-.84.64-1.29.64-1.03,0-1.79-.82-1.79-1.82ZM303.82,769.09c0-.73-.56-1.33-1.31-1.33s-1.27.59-1.27,1.33.56,1.33,1.27,1.33c.75,0,1.31-.59,1.31-1.33Z" fill="#fff"/>
        <path d="M306.5,770.64l-1.51-3.29h.59l1.2,2.67,1.11-2.67h.59l-2.2,5.11h-.57l.79-1.82Z" fill="#fff"/>
        <path d="M308.82,769.09c0-1,.75-1.82,1.79-1.82.45,0,.99.23,1.29.64v-.57h.54v3.5h-.54v-.57c-.3.42-.84.64-1.29.64-1.03,0-1.79-.82-1.79-1.82ZM311.95,769.09c0-.73-.56-1.33-1.31-1.33s-1.27.59-1.27,1.33.56,1.33,1.27,1.33c.75,0,1.31-.59,1.31-1.33Z" fill="#fff"/>
        <path d="M313.38,765.73h.55v5.11h-.55v-5.11Z" fill="#fff"/>
        <path d="M314.74,769.09c0-1,.75-1.82,1.79-1.82.45,0,.99.23,1.29.64v-.57h.54v3.5h-.54v-.57c-.3.42-.84.64-1.29.64-1.03,0-1.79-.82-1.79-1.82ZM317.87,769.09c0-.73-.56-1.33-1.31-1.33s-1.27.59-1.27,1.33.56,1.33,1.27,1.33c.75,0,1.31-.59,1.31-1.33Z" fill="#fff"/>
        <path d="M319.07,767.34h.6v-.82l.55-.3v1.13h.82v.49h-.82v1.67c0,.71.13.83.82.83v.51h-.08c-1.02,0-1.29-.29-1.29-1.34v-1.67h-.6v-.49Z" fill="#fff"/>
        <path d="M321.56,769.09c0-1,.75-1.82,1.79-1.82.45,0,.99.23,1.29.64v-.57h.54v3.5h-.54v-.57c-.3.42-.84.64-1.29.64-1.03,0-1.79-.82-1.79-1.82ZM324.69,769.09c0-.73-.56-1.33-1.31-1.33s-1.27.59-1.27,1.33.56,1.33,1.27,1.33c.75,0,1.31-.59,1.31-1.33Z" fill="#fff"/>
        <path d="M326.16,767.34h.53v.47c.23-.33.62-.54,1.12-.54.63,0,1.05.29,1.24.71.22-.43.68-.71,1.27-.71,1.01,0,1.56.61,1.56,1.51v2.06h-.55v-2.09c0-.58-.39-.99-1.02-.99-.57,0-1.03.39-1.03,1.05v2.04h-.54v-2.15c0-.56-.39-.93-.98-.93s-1.07.41-1.07,1.11v1.97h-.54v-3.5Z" fill="#fff"/>
        <path d="M292.43,771.71v-.35h39.91v.35h-39.91Z" fill="#fff"/>
      </g>
      <g>
        <path d="M359.82,769.15l-.71.72v.97h-.53v-5.1h.53v3.51l1.86-1.9h.68l-1.45,1.48,1.45,2.01h-.63l-1.22-1.69Z" fill="#fff"/>
        <path d="M362.33,765.73h.53v2.12c.25-.35.66-.58,1.19-.58.94,0,1.52.62,1.52,1.62v1.94h-.55v-1.94c0-.68-.35-1.13-1.05-1.13-.64,0-1.11.5-1.11,1.14v1.94h-.54v-5.1Z" fill="#fff"/>
        <path d="M366.37,769.09c0-1,.75-1.82,1.79-1.82.45,0,.99.23,1.29.64v-.57h.54v3.5h-.54v-.57c-.3.42-.84.64-1.29.64-1.03,0-1.79-.82-1.79-1.82ZM369.49,769.09c0-.73-.56-1.33-1.31-1.33s-1.27.59-1.27,1.33.56,1.33,1.27,1.33c.75,0,1.31-.59,1.31-1.33Z" fill="#fff"/>
        <path d="M372.17,770.64l-1.51-3.29h.59l1.2,2.67,1.11-2.67h.59l-2.2,5.11h-.57l.79-1.82Z" fill="#fff"/>
        <path d="M374.49,769.09c0-1,.75-1.82,1.79-1.82.45,0,.99.23,1.29.64v-.57h.54v3.5h-.54v-.57c-.3.42-.84.64-1.29.64-1.03,0-1.79-.82-1.79-1.82ZM377.62,769.09c0-.73-.56-1.33-1.31-1.33s-1.27.59-1.27,1.33.56,1.33,1.27,1.33c.75,0,1.31-.59,1.31-1.33Z" fill="#fff"/>
        <path d="M379.01,769.88h.55v.96h-.55v-.96Z" fill="#fff"/>
        <path d="M380.33,769.09c0-1.05.8-1.82,1.83-1.82.76,0,1.38.43,1.64,1.04l-.49.21c-.22-.48-.61-.76-1.15-.76-.73,0-1.28.59-1.28,1.33s.55,1.33,1.31,1.33c.58,0,.96-.35,1.15-.81l.5.21c-.28.64-.83,1.09-1.66,1.09-1.07,0-1.84-.81-1.84-1.82Z" fill="#fff"/>
        <path d="M384.57,767.34h.54v.5c.19-.32.52-.5.97-.5h.43v.5h-.43c-.71,0-.97.37-.97,1.18v1.81h-.54v-3.5Z" fill="#fff"/>
        <path d="M358.1,771.71v-.35h28.72v.35h-28.72Z" fill="#fff"/>
      </g>
      <g clip-path="url(#clippath)">
        <path d="M233.85,766.66c-.17,0-.3.13-.3.3s.13.3.3.3.3-.13.3-.3-.13-.3-.3-.3" fill="#fff"/>
        <path d="M232.53,767.05c-.69,0-1.26.56-1.26,1.26s.56,1.26,1.26,1.26,1.26-.56,1.26-1.26-.56-1.26-1.26-1.26M232.53,769.11c-.44,0-.8-.36-.8-.8s.36-.8.8-.8.8.36.8.8-.36.8-.8.8" fill="#fff"/>
        <path d="M233.52,770.85h-2.03c-.84,0-1.53-.69-1.53-1.53v-2.03c0-.84.69-1.53,1.53-1.53h2.03c.84,0,1.53.69,1.53,1.53v2.03c0,.84-.69,1.53-1.53,1.53M231.49,766.23c-.58,0-1.05.47-1.05,1.05v2.03c0,.58.47,1.05,1.05,1.05h2.03c.58,0,1.05-.47,1.05-1.05v-2.03c0-.58-.47-1.05-1.05-1.05h-2.03Z" fill="#fff"/>
      </g>
      <g clip-path="url(#clippath-1)">
        <path d="M287.04,770.81v-2.24h.75l.14-.93h-.89v-.6c0-.25.12-.5.52-.5h.4v-.79s-.37-.06-.72-.06c-.73,0-1.21.44-1.21,1.25v.71h-.81v.93h.81v2.24h1Z" fill="#fff"/>
      </g>
      <g clip-path="url(#clippath-2)">
        <path d="M353.65,767.78h0s-.09,0-.13,0c-.47,0-.91-.24-1.17-.63v2.15c0,.88-.71,1.59-1.59,1.59s-1.59-.71-1.59-1.59.71-1.59,1.59-1.59c.03,0,.07,0,.1,0v.78s-.06,0-.1,0c-.45,0-.81.36-.81.81s.36.81.81.81.84-.35.84-.8v-3.66h.76c.07.67.61,1.2,1.29,1.25v.87Z" fill="#fff"/>
      </g>
      <path d="M394.88,765.73h.55v6.71h-.55v-6.71Z" fill="#fff"/>
      <g>
        <path d="M414.43,769.15l-.71.72v.97h-.53v-5.1h.53v3.51l1.86-1.9h.68l-1.45,1.48,1.45,2.01h-.63l-1.22-1.69Z" fill="#fff"/>
        <path d="M416.94,765.73h.53v2.12c.25-.35.66-.58,1.19-.58.94,0,1.52.62,1.52,1.62v1.94h-.55v-1.94c0-.68-.35-1.13-1.05-1.13-.64,0-1.11.5-1.11,1.14v1.94h-.54v-5.1Z" fill="#fff"/>
        <path d="M420.98,769.09c0-1,.75-1.82,1.79-1.82.45,0,.99.23,1.29.64v-.57h.54v3.5h-.54v-.57c-.3.42-.84.64-1.29.64-1.03,0-1.79-.82-1.79-1.82ZM424.1,769.09c0-.73-.56-1.33-1.31-1.33s-1.27.59-1.27,1.33.56,1.33,1.27,1.33c.75,0,1.31-.59,1.31-1.33Z" fill="#fff"/>
        <path d="M426.78,770.64l-1.51-3.29h.59l1.2,2.67,1.11-2.67h.59l-2.2,5.11h-.57l.79-1.82Z" fill="#fff"/>
        <path d="M429.11,769.09c0-1,.75-1.82,1.79-1.82.45,0,.99.23,1.29.64v-.57h.54v3.5h-.54v-.57c-.3.42-.84.64-1.29.64-1.03,0-1.79-.82-1.79-1.82ZM432.23,769.09c0-.73-.56-1.33-1.31-1.33s-1.27.59-1.27,1.33.56,1.33,1.27,1.33c.75,0,1.31-.59,1.31-1.33Z" fill="#fff"/>
        <path d="M433.62,769.88h.55v.96h-.55v-.96Z" fill="#fff"/>
        <path d="M434.94,769.09c0-1.05.8-1.82,1.83-1.82.76,0,1.38.43,1.64,1.04l-.49.21c-.22-.48-.61-.76-1.15-.76-.73,0-1.28.59-1.28,1.33s.55,1.33,1.31,1.33c.58,0,.96-.35,1.15-.81l.5.21c-.28.64-.83,1.09-1.66,1.09-1.07,0-1.84-.81-1.84-1.82Z" fill="#fff"/>
        <path d="M439.18,767.34h.54v.5c.19-.32.52-.5.97-.5h.43v.5h-.43c-.71,0-.97.37-.97,1.18v1.81h-.54v-3.5Z" fill="#fff"/>
        <path d="M412.71,771.71v-.35h28.72v.35h-28.72Z" fill="#fff"/>
      </g>
      <g>
        <path d="M406.38,771.59c-1.55,0-2.81-1.26-2.81-2.81s1.26-2.81,2.81-2.81,2.81,1.26,2.81,2.81-1.26,2.81-2.81,2.81ZM406.38,766.38c-1.32,0-2.39,1.07-2.39,2.39s1.07,2.39,2.39,2.39,2.39-1.07,2.39-2.39-1.07-2.39-2.39-2.39Z" fill="#fff"/>
        <g>
          <path d="M406.38,771.59c-.76,0-1.34-1.21-1.34-2.81s.57-2.81,1.34-2.81,1.34,1.21,1.34,2.81-.57,2.81-1.34,2.81ZM406.38,766.38c-.43,0-.91,1.02-.91,2.39s.48,2.39.91,2.39.91-1.02.91-2.39-.48-2.39-.91-2.39Z" fill="#fff"/>
          <path d="M408.91,768.98h-5.13c-.12,0-.21-.09-.21-.21s.09-.21.21-.21h5.13c.12,0,.21.09.21.21s-.09.21-.21.21Z" fill="#fff"/>
        </g>
      </g>
    </g>
  </g>
  <text transform="translate(248.09 147.18)" fill="#ee7e0c" font-family="TheSeasons-Regular, &apos;The Seasons&apos;" font-size="9" letter-spacing=".1em"><tspan x="0" y="0">$1,000</tspan></text>
  <text transform="translate(56.04 147.08)" fill="#654a3b" font-family="SharpSansNo1-Medium, &apos;Sharp Sans No1 Medium&apos;" font-size="10" font-weight="500"><tspan x="0" y="0" letter-spacing=".1em">RESE</tspan><tspan x="27.07" y="0" letter-spacing=".09em">R</tspan><tspan x="33.86" y="0" letter-spacing="-.03em">V</tspan><tspan x="40.36" y="0" letter-spacing=".1em">A</tspan></text>
  <text transform="translate(438.63 147.08)" fill="#654a3b" font-family="SharpSansNo1-Medium, &apos;Sharp Sans No1 Medium&apos;" font-size="10" font-weight="500" letter-spacing=".1em"><tspan x="0" y="0">14/04/2026</tspan></text>
  <text transform="translate(248.09 169.05)" fill="#ee7e0c" font-family="TheSeasons-Regular, &apos;The Seasons&apos;" font-size="9" letter-spacing=".1em"><tspan x="0" y="0">$1,000</tspan></text>
  <text transform="translate(56.04 169.37)" fill="#654a3b" font-family="SharpSansNo1-Medium, &apos;Sharp Sans No1 Medium&apos;" font-size="10" font-weight="500"><tspan x="0" y="0" letter-spacing=".1em">O</tspan><tspan x="9.5" y="0" letter-spacing=".11em">P</tspan><tspan x="16.78" y="0" letter-spacing=".1em">CIÓN DE COMPRA</tspan></text>
  <text transform="translate(438.63 168.95)" fill="#654a3b" font-family="SharpSansNo1-Medium, &apos;Sharp Sans No1 Medium&apos;" font-size="10" font-weight="500" letter-spacing=".1em"><tspan x="0" y="0">29/04/2026</tspan></text>
  <text transform="translate(248.09 190.92)" fill="#ee7e0c" font-family="TheSeasons-Regular, &apos;The Seasons&apos;" font-size="9" letter-spacing=".1em"><tspan x="0" y="0">$1,238.08</tspan></text>
  <text transform="translate(56.04 190.82)" fill="#654a3b" font-family="SharpSansNo1-Medium, &apos;Sharp Sans No1 Medium&apos;" font-size="10" font-weight="500"><tspan x="0" y="0" letter-spacing=".1em">CU</tspan><tspan x="16.2" y="0" letter-spacing=".03em">O</tspan><tspan x="24.95" y="0" letter-spacing="-.03em">T</tspan><tspan x="30.74" y="0" letter-spacing=".1em">A 01/13</tspan></text>
  <text transform="translate(438.63 190.82)" fill="#654a3b" font-family="SharpSansNo1-Medium, &apos;Sharp Sans No1 Medium&apos;" font-size="10" font-weight="500" letter-spacing=".1em"><tspan x="0" y="0">14/05/2026</tspan></text>
  <text transform="translate(248.09 212.78)" fill="#ee7e0c" font-family="TheSeasons-Regular, &apos;The Seasons&apos;" font-size="9" letter-spacing=".1em"><tspan x="0" y="0">$1,238.08</tspan></text>
  <text transform="translate(56.04 212.68)" fill="#654a3b" font-family="SharpSansNo1-Medium, &apos;Sharp Sans No1 Medium&apos;" font-size="10" font-weight="500"><tspan x="0" y="0" letter-spacing=".1em">CU</tspan><tspan x="16.2" y="0" letter-spacing=".03em">O</tspan><tspan x="24.95" y="0" letter-spacing="-.03em">T</tspan><tspan x="30.74" y="0" letter-spacing=".1em">A 02/13</tspan></text>
  <text transform="translate(438.63 212.68)" fill="#654a3b" font-family="SharpSansNo1-Medium, &apos;Sharp Sans No1 Medium&apos;" font-size="10" font-weight="500" letter-spacing=".1em"><tspan x="0" y="0">14/06/2026</tspan></text>
  <text transform="translate(248.09 234.65)" fill="#ee7e0c" font-family="TheSeasons-Regular, &apos;The Seasons&apos;" font-size="9" letter-spacing=".1em"><tspan x="0" y="0">$1,238.08</tspan></text>
  <text transform="translate(56.04 234.55)" fill="#654a3b" font-family="SharpSansNo1-Medium, &apos;Sharp Sans No1 Medium&apos;" font-size="10" font-weight="500"><tspan x="0" y="0" letter-spacing=".1em">CU</tspan><tspan x="16.2" y="0" letter-spacing=".03em">O</tspan><tspan x="24.95" y="0" letter-spacing="-.03em">T</tspan><tspan x="30.74" y="0" letter-spacing=".1em">A 03/13</tspan></text>
  <text transform="translate(438.63 234.55)" fill="#654a3b" font-family="SharpSansNo1-Medium, &apos;Sharp Sans No1 Medium&apos;" font-size="10" font-weight="500" letter-spacing=".1em"><tspan x="0" y="0">14/07/2026</tspan></text>
  <text transform="translate(248.09 256.52)" fill="#ee7e0c" font-family="TheSeasons-Regular, &apos;The Seasons&apos;" font-size="9" letter-spacing=".1em"><tspan x="0" y="0">$1,238.08</tspan></text>
  <text transform="translate(56.04 256.42)" fill="#654a3b" font-family="SharpSansNo1-Medium, &apos;Sharp Sans No1 Medium&apos;" font-size="10" font-weight="500"><tspan x="0" y="0" letter-spacing=".1em">CU</tspan><tspan x="16.2" y="0" letter-spacing=".03em">O</tspan><tspan x="24.95" y="0" letter-spacing="-.03em">T</tspan><tspan x="30.74" y="0" letter-spacing=".1em">A 04/13</tspan></text>
  <text transform="translate(438.63 256.42)" fill="#654a3b" font-family="SharpSansNo1-Medium, &apos;Sharp Sans No1 Medium&apos;" font-size="10" font-weight="500" letter-spacing=".1em"><tspan x="0" y="0">14/08/2026</tspan></text>
  <text transform="translate(248.09 278.39)" fill="#ee7e0c" font-family="TheSeasons-Regular, &apos;The Seasons&apos;" font-size="9" letter-spacing=".1em"><tspan x="0" y="0">$1,238.08</tspan></text>
  <text transform="translate(56.04 278.29)" fill="#654a3b" font-family="SharpSansNo1-Medium, &apos;Sharp Sans No1 Medium&apos;" font-size="10" font-weight="500"><tspan x="0" y="0" letter-spacing=".1em">CU</tspan><tspan x="16.2" y="0" letter-spacing=".03em">O</tspan><tspan x="24.95" y="0" letter-spacing="-.03em">T</tspan><tspan x="30.74" y="0" letter-spacing=".1em">A 05/13</tspan></text>
  <text transform="translate(438.63 278.29)" fill="#654a3b" font-family="SharpSansNo1-Medium, &apos;Sharp Sans No1 Medium&apos;" font-size="10" font-weight="500" letter-spacing=".1em"><tspan x="0" y="0">14/09/2026</tspan></text>
  <text transform="translate(248.09 300.26)" fill="#ee7e0c" font-family="TheSeasons-Regular, &apos;The Seasons&apos;" font-size="9" letter-spacing=".1em"><tspan x="0" y="0">$1,238.08</tspan></text>
  <text transform="translate(56.04 300.16)" fill="#654a3b" font-family="SharpSansNo1-Medium, &apos;Sharp Sans No1 Medium&apos;" font-size="10" font-weight="500"><tspan x="0" y="0" letter-spacing=".1em">CU</tspan><tspan x="16.2" y="0" letter-spacing=".03em">O</tspan><tspan x="24.95" y="0" letter-spacing="-.03em">T</tspan><tspan x="30.74" y="0" letter-spacing=".1em">A 06/13</tspan></text>
  <text transform="translate(438.63 300.16)" fill="#654a3b" font-family="SharpSansNo1-Medium, &apos;Sharp Sans No1 Medium&apos;" font-size="10" font-weight="500" letter-spacing=".1em"><tspan x="0" y="0">14/10/2026</tspan></text>
  <text transform="translate(248.09 322.13)" fill="#ee7e0c" font-family="TheSeasons-Regular, &apos;The Seasons&apos;" font-size="9" letter-spacing=".1em"><tspan x="0" y="0">$1,238.08</tspan></text>
  <text transform="translate(56.04 322.03)" fill="#654a3b" font-family="SharpSansNo1-Medium, &apos;Sharp Sans No1 Medium&apos;" font-size="10" font-weight="500"><tspan x="0" y="0" letter-spacing=".1em">CU</tspan><tspan x="16.2" y="0" letter-spacing=".03em">O</tspan><tspan x="24.95" y="0" letter-spacing="-.03em">T</tspan><tspan x="30.74" y="0" letter-spacing=".1em">A 07/13</tspan></text>
  <text transform="translate(438.63 322.03)" fill="#654a3b" font-family="SharpSansNo1-Medium, &apos;Sharp Sans No1 Medium&apos;" font-size="10" font-weight="500" letter-spacing=".1em"><tspan x="0" y="0">14/11/2026</tspan></text>
  <text transform="translate(248.09 344)" fill="#ee7e0c" font-family="TheSeasons-Regular, &apos;The Seasons&apos;" font-size="9" letter-spacing=".1em"><tspan x="0" y="0">$1,238.08</tspan></text>
  <text transform="translate(56.04 343.9)" fill="#654a3b" font-family="SharpSansNo1-Medium, &apos;Sharp Sans No1 Medium&apos;" font-size="10" font-weight="500"><tspan x="0" y="0" letter-spacing=".1em">CU</tspan><tspan x="16.2" y="0" letter-spacing=".03em">O</tspan><tspan x="24.95" y="0" letter-spacing="-.03em">T</tspan><tspan x="30.74" y="0" letter-spacing=".1em">A 08/13</tspan></text>
  <text transform="translate(438.63 343.9)" fill="#654a3b" font-family="SharpSansNo1-Medium, &apos;Sharp Sans No1 Medium&apos;" font-size="10" font-weight="500" letter-spacing=".1em"><tspan x="0" y="0">14/12/2026</tspan></text>
  <text transform="translate(248.09 365.86)" fill="#ee7e0c" font-family="TheSeasons-Regular, &apos;The Seasons&apos;" font-size="9" letter-spacing=".1em"><tspan x="0" y="0">$1,238.08</tspan></text>
  <text transform="translate(56.04 365.76)" fill="#654a3b" font-family="SharpSansNo1-Medium, &apos;Sharp Sans No1 Medium&apos;" font-size="10" font-weight="500"><tspan x="0" y="0" letter-spacing=".1em">CU</tspan><tspan x="16.2" y="0" letter-spacing=".03em">O</tspan><tspan x="24.95" y="0" letter-spacing="-.03em">T</tspan><tspan x="30.74" y="0" letter-spacing=".1em">A 09/13</tspan></text>
  <text transform="translate(438.63 365.76)" fill="#654a3b" font-family="SharpSansNo1-Medium, &apos;Sharp Sans No1 Medium&apos;" font-size="10" font-weight="500" letter-spacing=".1em"><tspan x="0" y="0">14/01/2027</tspan></text>
  <text transform="translate(248.09 387.73)" fill="#ee7e0c" font-family="TheSeasons-Regular, &apos;The Seasons&apos;" font-size="9" letter-spacing=".1em"><tspan x="0" y="0">$1,238.08</tspan></text>
  <text transform="translate(56.04 387.63)" fill="#654a3b" font-family="SharpSansNo1-Medium, &apos;Sharp Sans No1 Medium&apos;" font-size="10" font-weight="500"><tspan x="0" y="0" letter-spacing=".1em">CU</tspan><tspan x="16.2" y="0" letter-spacing=".03em">O</tspan><tspan x="24.95" y="0" letter-spacing="-.03em">T</tspan><tspan x="30.74" y="0" letter-spacing=".1em">A 10/13</tspan></text>
  <text transform="translate(438.63 387.63)" fill="#654a3b" font-family="SharpSansNo1-Medium, &apos;Sharp Sans No1 Medium&apos;" font-size="10" font-weight="500" letter-spacing=".1em"><tspan x="0" y="0">14/02/2027</tspan></text>
  <text transform="translate(248.09 409.6)" fill="#ee7e0c" font-family="TheSeasons-Regular, &apos;The Seasons&apos;" font-size="9" letter-spacing=".1em"><tspan x="0" y="0">$1,238.08</tspan></text>
  <text transform="translate(56.04 409.5)" fill="#654a3b" font-family="SharpSansNo1-Medium, &apos;Sharp Sans No1 Medium&apos;" font-size="10" font-weight="500"><tspan x="0" y="0" letter-spacing=".1em">CU</tspan><tspan x="16.2" y="0" letter-spacing=".03em">O</tspan><tspan x="24.95" y="0" letter-spacing="-.03em">T</tspan><tspan x="30.74" y="0" letter-spacing=".1em">A 11/13</tspan></text>
  <text transform="translate(438.63 409.5)" fill="#654a3b" font-family="SharpSansNo1-Medium, &apos;Sharp Sans No1 Medium&apos;" font-size="10" font-weight="500" letter-spacing=".1em"><tspan x="0" y="0">14/03/2027</tspan></text>
  <text transform="translate(248.09 431.47)" fill="#ee7e0c" font-family="TheSeasons-Regular, &apos;The Seasons&apos;" font-size="9" letter-spacing=".1em"><tspan x="0" y="0">$1,238.08</tspan></text>
  <text transform="translate(56.04 431.37)" fill="#654a3b" font-family="SharpSansNo1-Medium, &apos;Sharp Sans No1 Medium&apos;" font-size="10" font-weight="500"><tspan x="0" y="0" letter-spacing=".1em">CU</tspan><tspan x="16.2" y="0" letter-spacing=".03em">O</tspan><tspan x="24.95" y="0" letter-spacing="-.03em">T</tspan><tspan x="30.74" y="0" letter-spacing=".1em">A 12/13</tspan></text>
  <text transform="translate(438.63 431.37)" fill="#654a3b" font-family="SharpSansNo1-Medium, &apos;Sharp Sans No1 Medium&apos;" font-size="10" font-weight="500" letter-spacing=".1em"><tspan x="0" y="0">14/04/2027</tspan></text>
  <text transform="translate(248.09 453.34)" fill="#ee7e0c" font-family="TheSeasons-Regular, &apos;The Seasons&apos;" font-size="9" letter-spacing=".1em"><tspan x="0" y="0">$1,238.08</tspan></text>
  <text transform="translate(56.04 453.24)" fill="#654a3b" font-family="SharpSansNo1-Medium, &apos;Sharp Sans No1 Medium&apos;" font-size="10" font-weight="500"><tspan x="0" y="0" letter-spacing=".1em">CU</tspan><tspan x="16.2" y="0" letter-spacing=".03em">O</tspan><tspan x="24.95" y="0" letter-spacing="-.03em">T</tspan><tspan x="30.74" y="0" letter-spacing=".1em">A 13/13</tspan></text>
  <text transform="translate(438.63 453.24)" fill="#654a3b" font-family="SharpSansNo1-Medium, &apos;Sharp Sans No1 Medium&apos;" font-size="10" font-weight="500" letter-spacing=".1em"><tspan x="0" y="0">14/05/2027</tspan></text>
  <text transform="translate(53.33 114.11)" fill="#654a3b" font-family="SharpSansNo1-Medium, &apos;Sharp Sans No1 Medium&apos;" font-size="12" font-weight="500"><tspan x="0" y="0" letter-spacing=".1em">CONCE</tspan><tspan x="50.86" y="0" letter-spacing=".06em">P</tspan><tspan x="58.99" y="0" letter-spacing=".02em">T</tspan><tspan x="66.6" y="0" letter-spacing=".1em">O</tspan></text>
  <text transform="translate(247.23 114.11)" fill="#654a3b" font-family="SharpSansNo1-Medium, &apos;Sharp Sans No1 Medium&apos;" font-size="12" font-weight="500"><tspan x="0" y="0" letter-spacing=".1em">MON</tspan><tspan x="32.98" y="0" letter-spacing=".03em">T</tspan><tspan x="40.58" y="0" letter-spacing=".1em">O</tspan></text>
  <text transform="translate(437.77 114.11)" fill="#654a3b" font-family="SharpSansNo1-Medium, &apos;Sharp Sans No1 Medium&apos;" font-size="12" font-weight="500"><tspan x="0" y="0" letter-spacing=".1em">F</tspan><tspan x="7.74" y="0" letter-spacing=".11em">E</tspan><tspan x="15.9" y="0" letter-spacing=".1em">CHA</tspan></text>
  <line x1="56.04" y1="126.11" x2="173.58" y2="126.11" fill="none" stroke="#ee7e0c" stroke-miterlimit="10" stroke-width=".5"/>
  <line x1="247.23" y1="126.11" x2="364.77" y2="126.11" fill="none" stroke="#ee7e0c" stroke-miterlimit="10" stroke-width=".5"/>
  <line x1="437.77" y1="126.11" x2="555.31" y2="126.11" fill="none" stroke="#ee7e0c" stroke-miterlimit="10" stroke-width=".5"/>
</svg>