<?xml version="1.0" encoding="UTF-8"?>
<svg id="Layer_1" data-name="Layer 1" xmlns="http://www.w3.org/2000/svg" viewBox="0 0 137.28 16.79">
  <defs>
    <style>
      .cls-1 {
        fill: #fff;
      }
    </style>
  </defs>
  <g>
    <path class="cls-1" d="M12.07,16.74h-3.11l-6.62-7.2v7.2H0V.39h2.34v7.2L8.57.39h3.11l-7.2,8,7.59,8.35Z"/>
    <path class="cls-1" d="M13.13.39h2.34v16.35h-2.34V.39ZM16.83,9.73v-2.34h5.02v2.34h-5.02ZM23.22.39h2.34v16.35h-2.34V.39Z"/>
    <path class="cls-1" d="M42.61,16.74h-2.53l-1.58-3.5h0l-3.67-8.08-3.67,8.08h0l-1.58,3.5h-2.53L34.84,0l7.79,16.74h-.02Z"/>
    <path class="cls-1" d="M64.98,16.74h-2.53l-1.58-3.5h0l-3.67-8.08-3.67,8.08h0l-1.58,3.5h-2.53L57.21,0l7.79,16.74h-.02Z"/>
    <g>
      <polygon class="cls-1" points="49.93 .35 46.88 7.06 48.29 9.39 52.67 .35 49.93 .35"/>
      <polygon class="cls-1" points="42.06 .31 39.46 .31 44.84 11.87 44.84 11.87 44.84 16.74 47.17 16.74 47.17 10.12 42.06 .31 42.06 .31"/>
    </g>
    <circle class="cls-1" cx="57.19" cy="13.31" r="1.87"/>
  </g>
  <g>
    <path class="cls-1" d="M70.14,8.1h2.66c1.82,0,3.03,1.23,3.03,2.79,0,1.14-.63,2.22-1.85,2.59l2.04,3.18h-1.47l-2.58-4.08h.69c1.28,0,1.89-.9,1.89-1.69,0-.96-.62-1.61-1.88-1.61h-1.26v7.38h-1.28v-8.57h0Z"/>
    <path class="cls-1" d="M78.73,13.78v-5.68h1.28v5.76c0,.95.74,1.73,1.71,1.73s1.75-.77,1.75-1.73v-5.76h1.27v5.68c0,1.84-1.28,3-3,3s-3-1.16-3-3h0Z"/>
    <path class="cls-1" d="M89.98,9.3h-2.43v-1.2h6.13v1.2h-2.43v7.37h-1.27v-7.37h0Z"/>
    <path class="cls-1" d="M109.55,13.78v-5.68h1.28v5.76c0,.95.74,1.73,1.71,1.73s1.75-.77,1.75-1.73v-5.76h1.27v5.68c0,1.84-1.28,3-3,3s-3-1.16-3-3h0Z"/>
    <path class="cls-1" d="M118.61,8.1h1.44l4.34,6.48v-6.48h1.27v8.57h-1.35l-4.42-6.58v6.58h-1.28v-8.57h0Z"/>
    <path class="cls-1" d="M128.49,12.39c0-2.43,1.96-4.4,4.39-4.4s4.4,1.97,4.4,4.4-1.96,4.4-4.4,4.4-4.39-1.97-4.39-4.4ZM136,12.39c0-1.74-1.36-3.17-3.12-3.17s-3.11,1.43-3.11,3.17,1.36,3.16,3.11,3.16,3.12-1.42,3.12-3.16Z"/>
    <polygon class="cls-1" points="99.07 8.1 97.75 8.1 94.61 16.67 95.94 16.67 96.6 14.84 97.05 13.62 98.41 9.86 99.77 13.62 100.22 14.84 100.88 16.67 102.21 16.67 99.07 8.1"/>
  </g>
</svg>